<?xml version="1.0" standalone="no"?>
<!DOCTYPE svg PUBLIC "-//W3C//DTD SVG 20010904//EN"
 "http://www.w3.org/TR/2001/REC-SVG-20010904/DTD/svg10.dtd">
<svg version="1.0" xmlns="http://www.w3.org/2000/svg"
 width="1280.000000pt" height="654.000000pt" viewBox="0 0 1280.000000 654.000000"
 preserveAspectRatio="xMidYMid meet">

<g transform="translate(0.000000,654.000000) scale(0.100000,-0.100000)"
fill="#000000" stroke="none">
<path d="M1545 6531 c-16 -3 -25 -9 -20 -13 13 -8 65 2 65 13 0 10 -1 10 -45
0z"/>
<path d="M1635 6530 c-4 -6 8 -10 29 -10 20 0 36 5 36 10 0 6 -13 10 -29 10
-17 0 -33 -4 -36 -10z"/>
<path d="M1745 6529 c-3 -3 5 -9 18 -13 31 -8 47 -7 47 3 0 11 -59 20 -65 10z"/>
<path d="M1440 6521 c-22 -4 -30 -9 -23 -14 15 -9 63 2 63 14 0 5 -1 8 -2 8
-2 -1 -19 -4 -38 -8z"/>
<path d="M1310 6500 c-11 -7 -5 -10 23 -10 20 0 37 5 37 10 0 13 -40 13 -60 0z"/>
<path d="M1850 6492 c0 -5 11 -19 25 -32 28 -26 33 -16 9 18 -15 22 -34 30
-34 14z"/>
<path d="M1195 6480 c-8 -13 45 -13 65 0 11 7 6 10 -22 10 -20 0 -40 -4 -43
-10z"/>
<path d="M1090 6460 c0 -13 40 -13 60 0 11 7 5 10 -22 10 -21 0 -38 -4 -38
-10z"/>
<path d="M985 6440 c-4 -6 6 -10 24 -10 16 0 33 5 36 10 4 6 -6 10 -24 10 -16
0 -33 -4 -36 -10z"/>
<path d="M888 6423 c-10 -2 -18 -9 -18 -15 0 -5 7 -7 16 -4 9 3 24 6 35 6 10
0 19 5 19 10 0 10 -21 11 -52 3z"/>
<path d="M1595 6420 c-22 -5 -94 -18 -160 -30 -329 -59 -982 -189 -1033 -205
-94 -31 -234 -155 -275 -243 -19 -41 -22 -65 -22 -182 0 -129 2 -139 34 -225
18 -49 113 -254 211 -455 184 -375 300 -636 300 -670 0 -10 4 -21 9 -25 5 -3
26 -48 46 -101 51 -131 73 -150 203 -184 50 -13 67 -37 76 -105 4 -27 18 -116
32 -197 13 -81 24 -152 24 -156 0 -5 -13 -7 -29 -4 -16 2 -32 -1 -35 -7 -5 -7
6 -11 31 -11 l38 0 78 -453 c162 -937 256 -1322 392 -1613 85 -182 204 -353
327 -469 149 -142 396 -303 575 -375 174 -69 370 -90 865 -90 323 0 461 10
627 46 73 16 309 94 476 157 145 56 135 55 136 5 0 -72 28 -130 73 -152 40
-20 213 -38 222 -24 3 5 123 8 267 8 319 0 1450 16 2097 30 261 5 513 11 560
11 l85 2 2 -54 c5 -100 13 -139 30 -139 13 0 15 14 12 98 l-4 97 380 7 c209 3
543 8 742 10 l361 3 7 -117 7 -118 62 1 c33 0 55 3 49 6 -21 8 -15 33 7 33 11
0 20 -7 20 -15 0 -8 3 -15 8 -15 4 0 6 51 4 114 l-4 114 93 6 c52 3 168 11
259 16 192 12 709 63 857 85 416 60 643 164 878 400 84 83 120 128 148 182 67
129 85 290 48 435 -51 197 -157 300 -357 344 -74 16 -240 17 -2474 20 -1317 1
-2429 5 -2470 9 -102 9 -129 23 -222 110 -90 85 -181 134 -293 160 -78 19
-137 15 -300 -16 -55 -10 -121 -19 -146 -19 -44 0 -52 5 -135 77 -156 135
-701 632 -1029 938 -89 83 -303 278 -475 435 -691 625 -855 798 -1209 1285
-197 272 -691 982 -691 994 0 6 -4 11 -8 11 -5 0 -29 29 -55 64 -56 76 -117
133 -163 152 -36 15 -105 17 -169 4z m133 -114 c15 -8 41 -29 58 -48 53 -56
144 -190 144 -209 0 -11 6 -19 13 -19 7 0 58 -64 112 -142 823 -1189 923
-1307 1720 -2028 149 -134 416 -379 595 -545 339 -313 613 -565 763 -699 49
-44 87 -86 87 -97 0 -10 5 -21 10 -24 6 -3 10 1 10 10 0 11 28 -8 82 -55 45
-40 98 -79 117 -88 49 -20 135 -18 264 7 147 29 229 28 312 -4 83 -31 110 -50
210 -145 91 -86 123 -99 250 -107 44 -2 86 -7 94 -9 7 -2 419 -3 915 -2 1647
5 3817 -3 3896 -14 138 -18 221 -71 270 -171 42 -86 57 -194 42 -295 -19 -119
-58 -189 -171 -302 -245 -246 -459 -332 -971 -390 -172 -20 -216 -21 -617 -14
-497 8 -443 -7 -443 123 l0 74 -46 -7 c-26 -3 -62 -6 -80 -6 l-34 0 7 -90 6
-90 -169 0 c-281 -1 -1174 -19 -1251 -26 l-73 -6 0 76 c0 71 -1 76 -21 76 -20
0 -21 -3 -14 -74 l7 -74 -84 -6 c-257 -19 -641 -50 -833 -67 -223 -20 -570
-30 -1577 -44 l-468 -6 0 26 c0 15 -4 24 -10 20 -6 -3 -10 -15 -10 -26 0 -17
-8 -19 -94 -19 -52 0 -98 4 -101 10 -3 5 -10 44 -15 86 -15 139 -59 152 -257
75 -73 -28 -136 -51 -141 -51 -5 0 -16 10 -25 22 -8 13 -18 20 -23 15 -4 -4
-2 -13 4 -19 25 -25 9 -36 -105 -71 -301 -94 -455 -112 -891 -104 -527 10
-631 26 -824 123 -304 153 -529 354 -675 602 -133 226 -238 556 -337 1060 -40
203 -216 1205 -246 1404 -11 73 -27 152 -36 175 -23 62 -69 97 -154 118 -54
13 -74 23 -81 39 -4 11 -36 90 -69 175 l-60 155 20 21 c29 30 25 43 -5 15
l-24 -23 -10 24 c-26 68 -115 257 -230 487 -108 216 -211 438 -211 455 0 3 10
8 23 12 21 8 21 8 -5 12 -38 6 -53 60 -53 188 0 116 13 145 93 216 92 81 103
84 503 164 399 80 842 163 872 164 10 1 30 -5 45 -13z m-546 -3056 c2 -17 -2
-25 -12 -25 -17 0 -25 28 -16 52 8 21 23 6 28 -27z m24 -124 c6 -26 -1 -46
-16 -46 -12 0 -24 46 -15 59 11 18 24 12 31 -13z m22 -155 c2 -23 0 -32 -9
-29 -14 5 -30 53 -21 63 13 13 27 -3 30 -34z m26 -127 c8 -31 3 -39 -19 -31
-19 8 -20 57 -1 57 8 0 17 -12 20 -26z m3751 -14 c13 -15 15 -24 8 -31 -13
-13 -57 26 -48 41 9 15 20 12 40 -10z m109 -102 c5 -9 7 -20 4 -23 -10 -10
-48 14 -48 31 0 20 29 14 44 -8z m-3836 -31 c2 -19 -1 -27 -12 -27 -9 0 -16 3
-16 8 0 4 -3 18 -7 31 -5 19 -2 22 13 19 12 -2 20 -13 22 -31z m3928 -52 c10
-26 0 -37 -20 -22 -11 8 -16 19 -12 25 10 16 26 15 32 -3z m-3898 -95 c-2 -8
-10 -15 -18 -15 -17 0 -25 28 -15 53 6 15 8 15 21 -3 8 -11 13 -26 12 -35z
m4006 1 c24 -27 11 -48 -15 -25 -19 17 -26 44 -11 44 5 0 17 -9 26 -19z m112
-95 c15 -12 16 -17 7 -27 -10 -10 -17 -9 -33 6 -36 33 -14 50 26 21z m-4095
-23 c10 -28 -1 -50 -20 -39 -14 9 -14 66 -1 66 6 0 15 -12 21 -27z m4509 12
c0 -10 -10 -15 -30 -15 -20 0 -30 5 -30 15 0 10 10 15 30 15 20 0 30 -5 30
-15z m138 -2 c2 -9 -7 -13 -27 -13 -21 0 -31 5 -31 16 0 19 51 16 58 -3z
m-273 -13 c9 -15 -46 -33 -59 -20 -8 8 -7 14 4 20 20 13 47 13 55 0z m-137
-27 c2 -9 -8 -13 -32 -13 -34 0 -44 8 -29 24 11 11 56 2 61 -11z m526 11 c18
-7 22 -34 5 -34 -17 0 -49 20 -49 30 0 11 21 13 44 4z m121 -84 c10 -11 15
-23 12 -27 -10 -9 -57 18 -57 34 0 19 24 16 45 -7z m-4855 -30 c0 -11 0 -23 1
-27 0 -5 -6 -9 -14 -11 -14 -3 -30 42 -19 53 13 12 32 3 32 -15z m4954 -65
c15 -12 17 -18 8 -27 -9 -9 -16 -7 -32 7 -36 33 -15 50 24 20z m-4923 -72 c10
-28 -1 -50 -20 -39 -14 9 -14 66 -1 66 6 0 15 -12 21 -27z m5067 10 c2 -9 -7
-13 -27 -13 -30 0 -46 11 -34 24 11 11 56 2 61 -11z m140 -10 c2 -9 -7 -13
-27 -13 -30 0 -46 11 -34 24 11 11 56 2 61 -11z m967 -3 c0 -18 -33 -26 -47
-12 -6 6 -7 15 -3 22 10 16 50 8 50 -10z m140 0 c0 -18 -33 -26 -47 -12 -6 6
-7 15 -3 22 10 16 50 8 50 -10z m145 5 c0 -10 -10 -15 -30 -15 -29 0 -38 9
-23 23 13 13 53 7 53 -8z m140 0 c0 -10 -10 -15 -30 -15 -29 0 -38 9 -23 23
13 13 53 7 53 -8z m140 0 c0 -10 -10 -15 -30 -15 -29 0 -38 9 -23 23 13 13 53
7 53 -8z m140 0 c0 -10 -10 -15 -30 -15 -29 0 -38 9 -23 23 13 13 53 7 53 -8z
m140 0 c0 -10 -10 -15 -30 -15 -29 0 -38 9 -23 23 13 13 53 7 53 -8z m140 0
c0 -10 -10 -15 -30 -15 -20 0 -30 5 -30 15 0 10 10 15 30 15 20 0 30 -5 30
-15z m140 0 c0 -10 -10 -15 -30 -15 -20 0 -30 5 -30 15 0 10 10 15 30 15 20 0
30 -5 30 -15z m140 0 c0 -10 -10 -15 -30 -15 -20 0 -30 5 -30 15 0 10 10 15
30 15 20 0 30 -5 30 -15z m140 0 c0 -10 -10 -15 -30 -15 -20 0 -30 5 -30 15 0
10 10 15 30 15 20 0 30 -5 30 -15z m138 -2 c2 -9 -7 -13 -27 -13 -21 0 -31 5
-31 16 0 19 51 16 58 -3z m140 0 c2 -9 -7 -13 -27 -13 -21 0 -31 5 -31 16 0
19 51 16 58 -3z m140 0 c2 -9 -7 -13 -27 -13 -21 0 -31 5 -31 16 0 19 51 16
58 -3z m140 0 c2 -9 -7 -13 -27 -13 -21 0 -31 5 -31 16 0 19 51 16 58 -3z
m140 0 c2 -9 -7 -13 -27 -13 -30 0 -46 11 -34 24 11 11 56 2 61 -11z m140 0
c2 -9 -8 -13 -32 -13 -34 0 -44 8 -29 24 11 11 56 2 61 -11z m138 6 c13 -21
-29 -36 -55 -20 -19 12 -5 31 24 31 13 0 27 -5 31 -11z m139 -9 c0 -18 -34
-24 -55 -10 -13 9 -13 11 0 20 21 14 55 8 55 -10z m142 -4 c-5 -15 -47 -20
-61 -6 -8 8 -7 13 2 19 18 11 64 1 59 -13z m-3489 2 c-5 -15 -33 -22 -54 -14
-24 9 -6 26 27 26 20 0 29 -4 27 -12z m140 0 c-3 -7 -17 -13 -33 -13 -16 0
-30 6 -32 13 -3 8 7 12 32 12 25 0 35 -4 33 -12z m140 0 c-3 -7 -17 -13 -33
-13 -16 0 -30 6 -32 13 -3 8 7 12 32 12 25 0 35 -4 33 -12z m140 0 c-3 -7 -17
-13 -33 -13 -16 0 -30 6 -32 13 -3 8 7 12 32 12 25 0 35 -4 33 -12z m140 0
c-3 -7 -17 -13 -33 -13 -16 0 -30 6 -32 13 -3 8 7 12 32 12 25 0 35 -4 33 -12z
m135 -3 c-4 -15 -56 -12 -61 3 -3 10 5 13 29 10 19 -2 33 -7 32 -13z m2935 3
c-3 -7 -17 -13 -33 -13 -16 0 -30 6 -32 13 -3 8 7 12 32 12 25 0 35 -4 33 -12z
m140 0 c-3 -7 -17 -13 -33 -13 -16 0 -30 6 -32 13 -3 8 7 12 32 12 25 0 35 -4
33 -12z m135 -3 c-4 -15 -56 -12 -61 3 -3 10 5 13 29 10 19 -2 33 -7 32 -13z
m140 0 c-4 -15 -56 -12 -61 3 -3 10 5 13 29 10 19 -2 33 -7 32 -13z m142 0 c0
-5 -15 -11 -32 -13 -25 -3 -33 1 -33 13 0 12 8 16 33 13 17 -2 32 -7 32 -13z
m140 0 c0 -5 -15 -11 -32 -13 -25 -3 -33 1 -33 13 0 12 8 16 33 13 17 -2 32
-7 32 -13z m140 0 c0 -5 -15 -11 -32 -13 -25 -3 -33 1 -33 13 0 12 8 16 33 13
17 -2 32 -7 32 -13z m135 0 c0 -10 -10 -15 -30 -15 -20 0 -30 5 -30 15 0 10
10 15 30 15 20 0 30 -5 30 -15z m138 -23 c3 -10 -4 -13 -24 -10 -15 2 -29 9
-32 16 -3 10 4 13 24 10 15 -2 29 -9 32 -16z m130 -60 c5 -16 -20 -15 -43 1
-27 20 -10 43 18 24 11 -7 23 -19 25 -25z m-10180 -55 c2 -19 -1 -27 -12 -27
-9 0 -16 3 -16 8 0 4 -3 18 -7 31 -5 19 -2 22 13 19 12 -2 20 -13 22 -31z
m10260 -19 c15 -15 16 -38 1 -38 -12 0 -38 29 -39 43 0 11 25 8 38 -5z
m-10218 -130 c0 -27 -27 -22 -34 7 -9 36 3 53 21 30 7 -11 13 -27 13 -37z
m10278 -11 c2 -18 -1 -27 -11 -27 -14 0 -29 44 -19 55 12 12 27 -3 30 -28z
m-10236 -111 c2 -10 -2 -21 -9 -23 -15 -6 -36 34 -28 55 5 13 8 14 20 1 7 -8
15 -23 17 -33z m10258 -26 c0 -20 -5 -30 -15 -30 -10 0 -15 10 -15 30 0 20 5
30 15 30 10 0 15 -10 15 -30z m-10209 -91 c8 -15 8 -24 0 -32 -13 -13 -26 -2
-36 31 -9 29 20 30 36 1z m10199 -43 c0 -26 -14 -41 -29 -32 -13 8 0 56 15 56
8 0 14 -10 14 -24z m-10138 -81 c17 -38 -5 -56 -27 -22 -16 25 -14 47 6 47 5
0 15 -11 21 -25z m10098 -38 c0 -19 -27 -53 -35 -45 -12 12 4 58 20 58 8 0 15
-6 15 -13z m-10020 -103 c0 -25 -19 -24 -35 0 -22 33 -10 54 16 30 10 -9 19
-23 19 -30z m9938 -20 c-3 -19 -34 -41 -43 -32 -4 3 -2 16 5 27 13 25 43 28
38 5z m-9870 -66 c13 -13 17 -48 5 -48 -12 0 -43 33 -43 47 0 16 22 17 38 1z
m9782 -26 c0 -16 -39 -44 -50 -37 -8 5 -6 13 6 26 17 19 44 26 44 11z m-9680
-116 c-13 -13 -55 27 -45 44 5 8 14 5 31 -11 17 -16 21 -26 14 -33z m9570 21
c0 -16 -38 -40 -51 -31 -6 4 -4 13 7 25 19 22 44 25 44 6z m-1960 -82 c0 -18
-5 -25 -19 -25 -13 0 -21 -8 -23 -22 -2 -15 -11 -24 -25 -26 -17 -3 -23 -10
-23 -28 0 -17 -5 -24 -20 -24 -15 0 -20 7 -20 25 0 18 5 25 20 25 15 0 20 7
20 25 0 20 -5 25 -25 25 -18 0 -25 5 -25 20 0 15 7 20 25 20 18 0 25 -5 25
-20 0 -13 7 -20 20 -20 13 0 20 7 20 19 0 17 12 25 43 30 4 0 7 -10 7 -24z
m-7515 -5 c13 -14 15 -24 8 -31 -13 -13 -59 23 -49 39 10 17 20 15 41 -8z
m9365 10 c0 -13 -48 -36 -56 -27 -4 4 -1 13 6 22 14 17 50 20 50 5z m-132 -67
c-2 -11 -14 -19 -31 -21 -33 -4 -36 15 -4 28 33 13 39 12 35 -7z m-9120 -25
c15 -15 16 -38 0 -38 -14 0 -48 30 -48 42 0 12 34 10 48 -4z m7402 -8 c0 -13
-7 -20 -20 -20 -15 0 -20 -7 -20 -25 0 -20 5 -25 25 -25 20 0 25 -5 25 -25 0
-20 -5 -25 -25 -25 -20 0 -25 5 -25 25 0 20 -5 25 -25 25 -14 0 -25 -4 -25 -9
0 -23 14 -41 30 -41 10 0 22 -9 25 -20 3 -11 15 -20 26 -20 14 0 19 -7 19 -25
0 -18 -5 -25 -20 -25 -15 0 -20 -7 -20 -25 0 -20 5 -25 25 -25 18 0 25 -5 25
-19 0 -12 -9 -21 -25 -25 -16 -4 -25 -13 -25 -26 0 -13 -7 -20 -20 -20 -14 0
-20 6 -18 18 2 12 -5 18 -24 20 -22 3 -28 9 -28 28 0 17 5 24 20 24 15 0 20 7
20 25 0 20 5 25 25 25 20 0 25 5 25 25 0 14 -4 25 -9 25 -23 0 -41 -14 -41
-31 0 -10 -2 -19 -4 -19 -2 0 -11 -3 -20 -6 -12 -5 -16 0 -16 20 0 19 5 26 19
26 10 0 21 9 24 19 6 25 0 31 -30 31 -30 0 -33 39 -3 47 11 3 20 14 20 24 0
12 10 21 25 25 16 4 25 13 25 25 0 12 7 19 20 19 13 0 20 -7 20 -20z m1590
-14 c0 -14 -21 -26 -46 -26 -20 0 -17 28 4 33 32 9 42 7 42 -7z m-6570 -40 c0
-14 -21 -26 -46 -26 -20 0 -17 28 4 33 32 9 42 7 42 -7z m6440 4 c0 -13 -48
-32 -61 -24 -16 10 11 34 37 34 13 0 24 -5 24 -10z m-8744 -24 c14 -11 16 -18
8 -26 -14 -14 -54 7 -54 27 0 17 22 16 46 -1z m2400 -12 c7 -27 -7 -50 -25
-40 -12 8 -15 49 -4 59 13 13 23 7 29 -19z m6202 4 c-7 -20 -58 -23 -58 -4 0
11 10 16 31 16 20 0 29 -4 27 -12z m-6428 -22 c0 -14 -21 -26 -46 -26 -20 0
-17 28 4 33 32 9 42 7 42 -7z m6290 -1 c0 -10 -10 -15 -30 -15 -20 0 -30 5
-30 15 0 10 10 15 30 15 20 0 30 -5 30 -15z m-1320 -14 c0 -18 -15 -19 -322
-25 -741 -13 -1158 -14 -1158 -1 0 15 135 21 735 33 729 15 745 15 745 -7z
m485 10 c42 -6 29 -8 -80 -14 -203 -11 -245 -10 -245 8 0 13 22 15 138 14 75
0 160 -4 187 -8z m695 -5 c0 -7 -10 -16 -22 -20 -28 -7 -49 11 -28 24 22 14
50 12 50 -4z m-136 -5 c8 -13 -20 -33 -40 -29 -24 4 -29 25 -7 31 30 8 42 7
47 -2z m-137 -17 c5 -16 -47 -28 -61 -14 -8 8 -7 13 4 20 19 13 52 9 57 -6z
m-7931 -8 c14 -11 16 -18 8 -26 -14 -14 -54 7 -54 27 0 17 22 16 46 -1z m5503
-11 c-2 -2 -101 -5 -219 -8 -235 -6 -226 -2 40 16 150 11 195 9 179 -8z m2288
9 c5 -16 -47 -28 -61 -14 -8 8 -7 13 4 20 19 13 52 9 57 -6z m-5867 -8 c0 -14
-21 -26 -46 -26 -17 0 -19 26 -1 33 24 10 47 7 47 -7z m5728 -4 c4 -13 -42
-27 -57 -17 -18 10 -12 23 12 28 29 6 40 3 45 -11z m-283 -23 c0 -8 -12 -15
-27 -17 -32 -4 -40 23 -10 31 25 7 37 2 37 -14z m145 6 c0 -16 -55 -22 -64 -6
-8 13 5 21 36 21 18 0 28 -5 28 -15z m-610 -5 c21 -13 0 -33 -31 -28 -41 6
-35 27 11 37 3 0 12 -4 20 -9z m128 -13 c2 -11 -3 -17 -17 -17 -23 0 -35 15
-26 31 10 15 39 6 43 -14z m202 8 c0 -9 -9 -15 -25 -15 -16 0 -25 6 -25 15 0
9 9 15 25 15 16 0 25 -6 25 -15z m-5442 -13 c4 -13 -45 -35 -59 -26 -16 9 -10
24 14 34 26 10 39 8 45 -8z m4557 -2 c0 -18 -43 -26 -57 -12 -16 16 2 33 30
30 16 -2 27 -9 27 -18z m142 4 c5 -15 -47 -28 -60 -15 -5 5 -6 14 -2 21 9 14
57 9 62 -6z m138 1 c0 -5 -15 -11 -32 -13 -25 -3 -33 1 -33 13 0 12 8 16 33
13 17 -2 32 -7 32 -13z m140 0 c0 -5 -15 -11 -32 -13 -25 -3 -33 1 -33 13 0
12 8 16 33 13 17 -2 32 -7 32 -13z m-6633 -13 c4 -4 4 -13 -1 -20 -6 -10 -13
-11 -34 -1 -37 17 -36 43 1 34 15 -3 30 -10 34 -13z m5653 -2 c0 -10 -10 -15
-29 -15 -33 0 -47 21 -19 28 29 8 48 3 48 -13z m142 3 c6 -16 -45 -29 -59 -15
-6 6 -7 15 -3 22 9 14 57 9 62 -7z m143 2 c0 -10 -11 -15 -35 -15 -33 0 -43 8
-28 23 13 14 63 7 63 -8z m138 3 c-3 -7 -17 -13 -33 -13 -16 0 -30 6 -32 13
-3 8 7 12 32 12 25 0 35 -4 33 -12z m-3915 -22 c16 -24 13 -36 -8 -36 -14 0
-37 45 -28 54 11 11 21 6 36 -18z m3207 4 c0 -15 -7 -20 -24 -20 -14 0 -28 5
-31 10 -10 16 4 30 31 30 17 0 24 -5 24 -20z m150 5 c0 -16 -55 -22 -64 -6 -8
13 5 21 36 21 18 0 28 -5 28 -15z m-565 -15 c0 -19 -45 -26 -56 -9 -12 20 0
30 29 27 16 -2 27 -9 27 -18z m145 5 c0 -16 -55 -22 -64 -6 -8 13 5 21 36 21
18 0 28 -5 28 -15z m140 0 c0 -16 -55 -22 -64 -6 -8 13 5 21 36 21 18 0 28 -5
28 -15z m-3714 -6 c3 -6 0 -15 -7 -20 -19 -12 -59 -11 -59 1 0 6 10 15 23 20
30 12 35 12 43 -1z m2872 -6 c-4 -20 -35 -30 -50 -15 -15 15 0 32 28 32 19 0
25 -5 22 -17z m142 2 c0 -10 -10 -15 -30 -15 -20 0 -30 5 -30 15 0 10 10 15
30 15 20 0 30 -5 30 -15z m140 0 c0 -10 -10 -15 -30 -15 -20 0 -30 5 -30 15 0
10 10 15 30 15 20 0 30 -5 30 -15z m140 0 c0 -16 -55 -22 -64 -6 -8 13 5 21
36 21 18 0 28 -5 28 -15z m-1115 -15 c0 -18 -43 -26 -57 -12 -16 16 2 33 30
30 16 -2 27 -9 27 -18z m138 13 c10 -10 -13 -33 -34 -33 -21 0 -33 15 -24 30
7 11 48 14 58 3z m142 -8 c0 -5 -15 -11 -32 -13 -25 -3 -33 1 -33 13 0 12 8
16 33 13 17 -2 32 -7 32 -13z m135 0 c0 -10 -10 -15 -30 -15 -20 0 -30 5 -30
15 0 10 10 15 30 15 20 0 30 -5 30 -15z m140 0 c0 -10 -10 -15 -30 -15 -20 0
-30 5 -30 15 0 10 10 15 30 15 20 0 30 -5 30 -15z m-4124 -6 c3 -6 2 -15 -3
-20 -12 -12 -63 5 -63 21 0 13 57 13 66 -1z m2731 -13 c-5 -15 -59 -14 -64 1
-2 6 6 13 19 15 30 5 50 -2 45 -16z m138 4 c0 -18 -43 -26 -57 -12 -16 16 2
33 30 30 16 -2 27 -9 27 -18z m142 4 c5 -15 -47 -28 -60 -15 -5 5 -6 14 -2 21
9 14 57 9 62 -6z m138 1 c0 -5 -15 -11 -32 -13 -25 -3 -33 1 -33 13 0 12 8 16
33 13 17 -2 32 -7 32 -13z m140 0 c0 -5 -15 -11 -32 -13 -25 -3 -33 1 -33 13
0 12 8 16 33 13 17 -2 32 -7 32 -13z m140 0 c0 -5 -15 -11 -32 -13 -25 -3 -33
1 -33 13 0 12 8 16 33 13 17 -2 32 -7 32 -13z m-2180 -16 c0 -9 -13 -15 -32
-17 -38 -4 -44 14 -10 28 28 11 42 7 42 -11z m920 1 c0 -18 -43 -26 -57 -12
-16 16 2 33 30 30 16 -2 27 -9 27 -18z m143 3 c2 -9 -7 -13 -27 -13 -30 0 -46
11 -34 24 11 11 56 2 61 -11z m142 2 c0 -10 -11 -15 -35 -15 -33 0 -43 8 -28
23 13 14 63 7 63 -8z m138 3 c-3 -7 -17 -13 -33 -13 -16 0 -30 6 -32 13 -3 8
7 12 32 12 25 0 35 -4 33 -12z m-2467 -9 c24 -13 16 -29 -16 -29 -26 0 -40 14
-30 30 8 13 21 13 46 -1z m154 -24 c0 -5 -15 -11 -32 -13 -25 -3 -33 1 -33 13
0 12 8 16 33 13 17 -2 32 -7 32 -13z m133 -7 c3 -13 -3 -18 -22 -18 -27 0 -41
14 -31 31 10 16 49 6 53 -13z m702 7 c0 -16 -55 -22 -64 -6 -8 13 5 21 36 21
18 0 28 -5 28 -15z m-560 -10 c0 -10 -10 -15 -30 -15 -20 0 -30 5 -30 15 0 10
10 15 30 15 20 0 30 -5 30 -15z m140 0 c0 -10 -10 -15 -30 -15 -20 0 -30 5
-30 15 0 10 10 15 30 15 20 0 30 -5 30 -15z m140 0 c0 -10 -10 -15 -30 -15
-20 0 -30 5 -30 15 0 10 10 15 30 15 20 0 30 -5 30 -15z m140 0 c0 -10 -10
-15 -30 -15 -20 0 -30 5 -30 15 0 10 10 15 30 15 20 0 30 -5 30 -15z m5940
-70 c0 -18 -5 -25 -19 -25 -13 0 -21 -8 -23 -22 -2 -15 -11 -24 -25 -26 -13
-2 -23 -10 -23 -18 0 -8 -9 -14 -20 -14 -11 0 -20 7 -20 15 0 8 9 15 20 15 15
0 20 7 20 25 0 18 -5 25 -20 25 -13 0 -20 7 -20 20 0 13 7 20 20 20 13 0 20
-7 20 -20 0 -15 7 -20 25 -20 20 0 25 5 25 25 0 18 5 25 20 25 15 0 20 -7 20
-25z"/>
<path d="M1560 6220 c0 -18 7 -20 60 -20 l60 0 -30 -47 c-30 -47 -50 -101 -50
-135 0 -12 8 -18 24 -18 20 0 24 6 30 43 4 23 23 70 41 105 51 91 50 92 -50
92 -78 0 -85 -2 -85 -20z"/>
<path d="M1195 6120 c-4 -6 8 -10 29 -10 20 0 36 5 36 10 0 6 -13 10 -29 10
-17 0 -33 -4 -36 -10z"/>
<path d="M1097 6113 c-9 -2 -15 -8 -13 -12 7 -10 66 -1 66 10 0 9 -22 10 -53
2z"/>
<path d="M1306 6111 c14 -15 64 -25 64 -13 0 10 -32 22 -59 22 -10 0 -11 -3
-5 -9z"/>
<path d="M993 6093 c-25 -9 -13 -23 15 -17 37 9 52 24 22 23 -14 0 -31 -3 -37
-6z"/>
<path d="M898 6068 c-33 -12 -38 -32 -5 -22 34 10 50 21 41 26 -5 3 -21 1 -36
-4z"/>
<path d="M1421 6038 c13 -18 25 -26 27 -19 4 13 -25 51 -40 51 -5 0 1 -14 13
-32z"/>
<path d="M780 6025 c-15 -8 -19 -14 -10 -15 26 0 60 12 60 21 0 13 -21 10 -50
-6z"/>
<path d="M690 5980 c-14 -10 -22 -22 -18 -25 8 -8 58 24 58 36 0 14 -13 10
-40 -11z"/>
<path d="M1881 5979 c-13 -11 -21 -23 -17 -26 4 -4 16 3 28 15 28 28 20 36
-11 11z"/>
<path d="M1469 5962 c12 -23 41 -48 41 -35 0 5 -7 19 -16 31 -19 27 -39 30
-25 4z"/>
<path d="M363 5945 c-29 -20 -47 -87 -38 -142 11 -77 89 -109 140 -58 30 30
32 64 4 99 -22 28 -66 35 -87 14 -9 -9 -12 -8 -12 6 0 29 19 56 40 56 11 0 20
-4 20 -10 0 -5 11 -10 25 -10 30 0 32 13 5 40 -24 24 -67 26 -97 5z m72 -126
c12 -19 -4 -59 -25 -59 -23 0 -43 32 -34 54 7 18 49 22 59 5z"/>
<path d="M1783 5920 c-13 -5 -23 -12 -23 -15 0 -11 37 -4 56 10 22 17 4 20
-33 5z"/>
<path d="M620 5899 c-6 -11 -9 -25 -7 -32 2 -7 11 3 21 21 9 17 12 32 7 32 -6
0 -15 -9 -21 -21z"/>
<path d="M1540 5902 c0 -5 7 -13 16 -16 24 -9 54 -7 54 4 0 6 -9 10 -19 10
-11 0 -26 3 -35 6 -9 3 -16 2 -16 -4z"/>
<path d="M1655 5890 c-4 -6 8 -10 29 -10 20 0 36 5 36 10 0 6 -13 10 -29 10
-17 0 -33 -4 -36 -10z"/>
<path d="M1670 5806 c0 -34 0 -34 -30 -23 -40 15 -62 1 -74 -46 -17 -67 20
-111 75 -90 16 7 29 7 29 2 0 -5 5 -9 10 -9 6 0 10 40 10 100 0 60 -4 100 -10
100 -5 0 -10 -15 -10 -34z m-9 -63 c14 -36 -2 -77 -31 -81 -28 -5 -40 12 -40
59 0 42 5 49 37 49 16 0 27 -8 34 -27z"/>
<path d="M1730 5830 c0 -5 5 -10 10 -10 6 0 10 5 10 10 0 6 -4 10 -10 10 -5 0
-10 -4 -10 -10z"/>
<path d="M788 5810 c-32 -25 -42 -71 -24 -115 16 -38 42 -55 84 -55 35 0 88
38 74 52 -7 7 -17 3 -31 -11 -12 -12 -30 -21 -41 -21 -31 0 -70 44 -70 78 0
60 71 94 107 52 20 -24 33 -26 33 -6 0 43 -89 60 -132 26z"/>
<path d="M590 5808 c0 -7 -3 -24 -6 -38 -5 -17 -4 -22 4 -15 16 15 26 65 13
65 -6 0 -11 -6 -11 -12z"/>
<path d="M962 5724 c4 -79 18 -96 68 -77 16 6 30 7 30 2 0 -5 5 -9 10 -9 6 0
10 32 10 75 0 43 -4 75 -10 75 -5 0 -10 -18 -10 -39 0 -60 -15 -91 -44 -91
-29 0 -36 16 -36 81 0 27 -5 49 -10 49 -7 0 -10 -25 -8 -66z"/>
<path d="M1120 5715 c0 -43 4 -75 10 -75 6 0 10 22 10 48 0 49 13 76 40 84 11
4 21 -12 36 -61 30 -91 46 -90 77 3 18 54 22 76 13 76 -7 0 -21 -28 -32 -62
l-20 -62 -18 62 c-17 56 -21 61 -45 60 -14 -1 -32 -6 -38 -11 -9 -6 -13 -6
-13 2 0 6 -4 11 -10 11 -6 0 -10 -32 -10 -75z"/>
<path d="M1354 5776 c-14 -11 -19 -26 -19 -61 0 -50 20 -75 60 -75 26 0 63 25
52 36 -4 4 -13 2 -19 -4 -17 -17 -55 -15 -62 4 -11 30 -6 34 45 34 51 0 51 0
45 28 -12 49 -61 67 -102 38z m74 -28 c3 -15 -4 -18 -32 -18 -34 0 -47 15 -29
34 13 13 58 1 61 -16z"/>
<path d="M1730 5715 c0 -43 4 -75 10 -75 6 0 10 32 10 75 0 43 -4 75 -10 75
-6 0 -10 -32 -10 -75z"/>
<path d="M546 5695 c-18 -28 -20 -35 -7 -35 13 0 42 48 32 54 -5 3 -16 -5 -25
-19z"/>
<path d="M468 5626 c-29 -10 -38 -26 -15 -26 16 0 54 27 47 32 -3 3 -17 0 -32
-6z"/>
<path d="M340 5590 c-11 -7 -5 -10 23 -10 20 0 37 5 37 10 0 13 -40 13 -60 0z"/>
<path d="M760 5455 l0 -95 65 0 c37 0 65 4 65 10 0 6 -22 10 -50 10 l-50 0 0
85 c0 69 -3 85 -15 85 -12 0 -15 -17 -15 -95z"/>
<path d="M934 5496 c-14 -11 -19 -26 -19 -61 0 -50 20 -75 60 -75 26 0 63 25
52 36 -4 4 -13 2 -19 -4 -17 -17 -55 -15 -62 4 -11 30 -6 34 45 34 51 0 51 0
45 28 -12 49 -61 67 -102 38z m74 -28 c3 -15 -4 -18 -32 -18 -34 0 -47 15 -29
34 13 13 58 1 61 -16z"/>
<path d="M1076 5494 c-9 -8 -16 -19 -16 -24 0 -14 30 -40 46 -40 27 0 53 -20
48 -35 -7 -18 -55 -20 -72 -3 -6 6 -15 8 -19 4 -11 -11 27 -36 55 -36 34 0 62
18 62 39 0 22 -15 35 -55 48 -39 12 -47 43 -11 43 14 0 28 -4 31 -10 9 -15 25
-12 25 4 0 28 -69 36 -94 10z"/>
<path d="M1210 5435 c0 -43 4 -75 10 -75 6 0 10 18 10 39 0 60 16 93 43 89 20
-3 22 -9 25 -65 3 -72 22 -86 22 -17 0 54 14 84 39 84 24 0 31 -19 31 -81 0
-27 5 -49 10 -49 14 0 13 123 -2 138 -15 15 -50 16 -65 1 -8 -8 -16 -7 -31 2
-16 10 -26 10 -46 1 -16 -7 -26 -8 -26 -2 0 6 -4 10 -10 10 -6 0 -10 -32 -10
-75z"/>
<path d="M1460 5490 c-43 -43 -13 -130 45 -130 36 0 65 33 65 75 0 42 -29 75
-65 75 -14 0 -34 -9 -45 -20z m75 -55 c0 -49 -1 -50 -30 -50 -28 0 -30 3 -33
39 -5 54 3 68 35 64 26 -3 28 -6 28 -53z"/>
<path d="M890 4680 c0 -5 14 -10 30 -10 17 0 30 5 30 10 0 6 -13 10 -30 10
-16 0 -30 -4 -30 -10z"/>
<path d="M801 4669 c-13 -5 -21 -12 -18 -15 8 -9 67 6 67 17 0 11 -18 11 -49
-2z"/>
<path d="M994 4671 c8 -12 55 -20 61 -11 3 4 -2 11 -11 14 -24 9 -56 7 -50 -3z"/>
<path d="M1097 4615 c18 -25 33 -32 33 -17 0 10 -33 42 -44 42 -4 0 1 -11 11
-25z"/>
<path d="M870 4504 l0 -67 44 6 c52 7 72 -8 62 -48 -5 -18 -13 -25 -32 -25
-13 0 -27 7 -30 15 -7 17 -54 21 -54 5 0 -6 11 -22 25 -35 53 -53 145 -16 145
58 0 46 -37 81 -79 75 -27 -4 -31 -1 -31 18 0 20 6 23 47 26 36 2 49 7 51 21
3 15 -6 17 -72 17 l-76 0 0 -66z"/>
<path d="M2070 4550 c0 -5 5 -10 10 -10 6 0 10 5 10 10 0 6 -4 10 -10 10 -5 0
-10 -4 -10 -10z"/>
<path d="M1145 4523 c7 -30 13 -39 19 -32 8 8 -6 59 -16 59 -6 0 -7 -11 -3
-27z"/>
<path d="M1336 4534 c-18 -17 -21 -34 -7 -34 5 0 14 7 21 15 15 18 42 19 58 3
19 -19 15 -28 -43 -83 -30 -29 -55 -58 -55 -64 0 -7 26 -11 70 -11 40 0 70 4
70 10 0 6 -26 10 -57 10 l-58 1 53 47 c39 35 52 54 52 74 0 45 -70 66 -104 32z"/>
<path d="M1473 4524 c-15 -24 -15 -29 -2 -53 8 -14 24 -27 36 -29 29 -4 57 38
47 70 -14 45 -55 51 -81 12z m62 -13 c8 -26 -4 -51 -25 -51 -10 0 -21 7 -24
16 -10 25 3 54 24 54 10 0 21 -8 25 -19z"/>
<path d="M1676 4468 c20 -46 38 -89 41 -95 3 -7 11 -13 18 -13 7 0 15 6 18 13
3 6 21 49 41 95 25 59 31 82 22 82 -8 0 -28 -34 -46 -77 -18 -43 -33 -79 -34
-80 -1 -2 -17 33 -35 77 -19 46 -38 80 -46 80 -10 0 -5 -23 21 -82z"/>
<path d="M2438 4520 c-10 -11 -13 -22 -8 -25 6 -4 10 -28 10 -55 0 -26 3 -55
6 -64 7 -17 54 -22 54 -6 0 6 -7 10 -15 10 -23 0 -21 98 3 116 16 13 16 13 0
14 -10 0 -18 7 -18 15 0 20 -11 18 -32 -5z"/>
<path d="M1842 4498 c-16 -16 -15 -28 3 -28 8 0 15 5 15 11 0 18 45 5 48 -13
3 -14 -3 -18 -27 -18 -49 0 -79 -48 -49 -78 15 -15 50 -16 65 -1 8 8 17 7 31
-2 12 -7 25 -9 29 -5 4 5 2 11 -4 13 -8 3 -13 23 -13 53 0 31 -6 54 -16 64
-18 19 -65 21 -82 4z m68 -81 c0 -19 -21 -37 -42 -37 -18 0 -25 29 -11 43 12
12 53 7 53 -6z"/>
<path d="M1980 4435 c0 -43 4 -75 10 -75 6 0 10 21 10 46 0 53 14 84 37 84 13
0 14 3 5 12 -8 8 -15 8 -27 -2 -10 -8 -15 -9 -15 -1 0 6 -4 11 -10 11 -6 0
-10 -32 -10 -75z"/>
<path d="M2070 4435 c0 -43 4 -75 10 -75 6 0 10 32 10 75 0 43 -4 75 -10 75
-6 0 -10 -32 -10 -75z"/>
<path d="M2142 4498 c-16 -16 -15 -28 3 -28 8 0 15 5 15 11 0 18 45 5 48 -13
3 -14 -3 -18 -27 -18 -49 0 -79 -48 -49 -78 15 -15 50 -16 65 -1 8 8 17 7 31
-2 12 -7 25 -9 29 -5 4 5 2 11 -4 13 -8 3 -13 23 -13 53 0 31 -6 54 -16 64
-18 19 -65 21 -82 4z m68 -81 c0 -19 -21 -37 -42 -37 -18 0 -25 29 -11 43 12
12 53 7 53 -6z"/>
<path d="M2280 4435 c0 -43 4 -75 10 -75 6 0 10 18 10 39 0 60 15 91 44 91 29
0 36 -16 36 -81 0 -27 5 -49 10 -49 7 0 10 25 8 66 -4 79 -18 96 -68 77 -16
-6 -30 -7 -30 -2 0 5 -4 9 -10 9 -6 0 -10 -32 -10 -75z"/>
<path d="M2534 4496 c-14 -11 -19 -26 -19 -61 0 -50 20 -75 60 -75 26 0 63 25
52 36 -4 4 -13 2 -19 -4 -17 -17 -55 -15 -62 4 -11 30 -6 34 45 34 51 0 51 0
45 28 -12 49 -61 67 -102 38z m74 -28 c3 -15 -4 -18 -32 -18 -34 0 -47 15 -29
34 13 13 58 1 61 -16z"/>
<path d="M1160 4421 c0 -17 5 -33 10 -36 6 -4 10 8 10 29 0 20 -4 36 -10 36
-5 0 -10 -13 -10 -29z"/>
<path d="M1167 4343 c-11 -10 -8 -63 3 -63 6 0 10 16 10 35 0 36 -2 40 -13 28z"/>
<path d="M1337 4241 c-10 -17 -17 -50 -17 -81 0 -49 23 -110 42 -110 11 0 10
3 -7 36 -19 37 -19 124 0 150 16 21 19 34 7 34 -4 0 -15 -13 -25 -29z"/>
<path d="M1410 4189 c17 -44 30 -82 30 -85 0 -2 7 -4 15 -4 8 0 15 2 15 4 0 3
13 41 30 85 21 57 26 81 17 81 -7 0 -23 -31 -36 -70 -12 -38 -24 -70 -26 -70
-2 0 -14 32 -26 70 -13 39 -29 70 -36 70 -9 0 -4 -24 17 -81z"/>
<path d="M1730 4260 c0 -5 7 -10 15 -10 8 0 15 5 15 10 0 6 -7 10 -15 10 -8 0
-15 -4 -15 -10z"/>
<path d="M2058 4241 c-9 -10 -12 -23 -8 -27 5 -5 10 -31 12 -59 3 -43 6 -50
26 -53 12 -2 22 1 22 7 0 6 -7 11 -15 11 -22 0 -20 79 3 96 16 12 16 13 0 14
-9 0 -18 7 -20 15 -2 13 -6 13 -20 -4z"/>
<path d="M1160 4204 c0 -21 4 -33 10 -29 6 3 10 19 10 36 0 16 -4 29 -10 29
-5 0 -10 -16 -10 -36z"/>
<path d="M1540 4215 c-7 -9 -9 -19 -5 -23 4 -4 10 -1 12 6 7 18 53 15 53 -3 0
-9 -9 -15 -23 -15 -52 0 -75 -49 -35 -74 13 -8 23 -8 38 1 12 8 21 9 25 3 3
-6 14 -10 23 -10 12 0 13 3 4 12 -7 7 -12 30 -12 53 0 23 -5 46 -12 53 -17 17
-53 15 -68 -3z m55 -75 c-5 -15 -13 -20 -28 -18 -30 4 -28 31 3 38 31 8 33 7
25 -20z"/>
<path d="M1660 4163 c0 -35 4 -63 10 -63 6 0 10 23 10 51 0 42 3 52 20 56 30
8 24 22 -10 21 l-30 -1 0 -64z"/>
<path d="M1730 4165 c0 -51 3 -65 15 -65 12 0 15 14 15 65 0 51 -3 65 -15 65
-12 0 -15 -14 -15 -65z"/>
<path d="M1800 4215 c-7 -9 -9 -19 -5 -23 4 -4 10 -1 12 6 7 18 53 15 53 -3 0
-9 -9 -15 -23 -15 -52 0 -75 -49 -35 -74 13 -8 23 -8 38 1 12 8 21 9 25 3 3
-6 14 -10 23 -10 12 0 13 3 4 12 -7 7 -12 30 -12 53 0 23 -5 46 -12 53 -17 17
-53 15 -68 -3z m55 -75 c-5 -15 -13 -20 -28 -18 -30 4 -28 31 3 38 31 8 33 7
25 -20z"/>
<path d="M1920 4163 c0 -76 18 -85 22 -10 3 48 5 52 31 55 27 3 27 2 27 -52 0
-32 4 -56 10 -56 7 0 10 24 8 63 l-3 62 -47 1 -48 1 0 -64z"/>
<path d="M2137 4212 c-36 -39 -10 -112 39 -112 21 0 44 18 44 34 0 6 -5 5 -12
-2 -17 -17 -55 -15 -62 4 -9 24 -9 24 39 24 37 0 45 3 45 18 0 24 -31 52 -57
52 -11 0 -27 -8 -36 -18z m67 -17 c4 -12 -3 -15 -29 -15 -26 0 -33 3 -29 15 4
8 16 15 29 15 13 0 25 -7 29 -15z"/>
<path d="M1160 4111 c0 -16 5 -33 10 -36 6 -4 10 6 10 24 0 16 -4 33 -10 36
-6 4 -10 -6 -10 -24z"/>
<path d="M1175 4003 c7 -30 13 -39 19 -32 8 8 -6 59 -16 59 -6 0 -7 -11 -3
-27z"/>
<path d="M1400 3995 c0 -22 -3 -24 -28 -19 -37 7 -62 -17 -62 -59 0 -49 14
-61 65 -63 l45 -2 0 84 c0 49 -4 84 -10 84 -5 0 -10 -11 -10 -25z m-5 -80 c0
-36 -3 -40 -27 -43 -30 -4 -44 23 -34 64 5 20 12 25 34 22 24 -3 27 -7 27 -43z"/>
<path d="M1590 3935 c0 -50 4 -85 10 -85 6 0 10 35 10 85 0 50 -4 85 -10 85
-6 0 -10 -35 -10 -85z"/>
<path d="M1650 3935 c0 -50 4 -85 10 -85 6 0 10 35 10 85 0 50 -4 85 -10 85
-6 0 -10 -35 -10 -85z"/>
<path d="M1910 3935 c0 -50 4 -85 10 -85 6 0 10 16 10 35 0 32 3 35 28 35 22
0 32 -7 45 -35 9 -19 23 -35 32 -35 12 0 10 7 -6 35 -19 32 -19 36 -5 51 22
21 20 61 -3 74 -11 5 -40 10 -65 10 l-46 0 0 -85z m108 41 c5 -24 -14 -36 -55
-36 -30 0 -33 3 -33 31 0 29 1 30 42 27 33 -2 44 -8 46 -22z"/>
<path d="M2480 4010 c0 -5 7 -10 15 -10 8 0 15 5 15 10 0 6 -7 10 -15 10 -8 0
-15 -4 -15 -10z"/>
<path d="M2660 4013 c0 -5 7 -17 15 -27 9 -12 15 -42 15 -76 0 -34 -6 -64 -15
-76 -16 -21 -19 -34 -7 -34 19 0 42 61 42 110 0 31 -7 64 -17 81 -16 27 -33
39 -33 22z"/>
<path d="M1467 3962 c-36 -39 -10 -112 39 -112 21 0 44 18 44 34 0 6 -5 5 -12
-2 -17 -17 -55 -15 -62 4 -9 24 -9 24 39 24 37 0 45 3 45 18 0 24 -31 52 -57
52 -11 0 -27 -8 -36 -18z m67 -17 c4 -12 -3 -15 -29 -15 -26 0 -33 3 -29 15 4
8 16 15 29 15 13 0 25 -7 29 -15z"/>
<path d="M1720 3965 c-7 -9 -9 -19 -5 -23 4 -4 10 -1 12 6 7 18 53 15 53 -3 0
-9 -9 -15 -23 -15 -52 0 -75 -49 -35 -74 13 -8 23 -8 38 1 12 8 21 9 25 3 3
-6 14 -10 23 -10 12 0 13 3 4 12 -7 7 -12 30 -12 53 0 23 -5 46 -12 53 -17 17
-53 15 -68 -3z m55 -75 c-5 -15 -13 -20 -28 -18 -30 4 -28 31 3 38 31 8 33 7
25 -20z"/>
<path d="M2087 3962 c-36 -40 -10 -112 40 -112 46 0 72 80 37 114 -21 21 -57
20 -77 -2z m69 -26 c9 -38 -4 -66 -31 -66 -27 0 -40 28 -31 66 5 17 13 24 31
24 18 0 26 -7 31 -24z"/>
<path d="M2215 3964 c-20 -20 -19 -78 1 -98 19 -19 45 -21 63 -3 10 10 12 7 9
-13 -3 -22 -8 -25 -41 -24 -30 1 -35 -1 -26 -12 14 -17 61 -18 77 -2 7 7 12
42 12 88 l0 76 -40 1 c-24 1 -46 -4 -55 -13z m70 -49 c0 -36 -3 -40 -27 -43
-30 -4 -44 23 -34 64 5 20 12 25 34 22 24 -3 27 -7 27 -43z"/>
<path d="M2355 3964 c-20 -20 -19 -78 1 -98 19 -19 45 -21 63 -3 10 10 12 7 9
-13 -3 -22 -8 -25 -41 -24 -30 1 -35 -1 -26 -12 14 -17 61 -18 77 -2 7 7 12
42 12 88 l0 76 -40 1 c-24 1 -46 -4 -55 -13z m70 -49 c0 -36 -3 -40 -27 -43
-30 -4 -44 23 -34 64 5 20 12 25 34 22 24 -3 27 -7 27 -43z"/>
<path d="M2480 3915 c0 -51 3 -65 15 -65 12 0 15 14 15 65 0 51 -3 65 -15 65
-12 0 -15 -14 -15 -65z"/>
<path d="M2550 3965 c-7 -9 -9 -19 -5 -23 4 -4 10 -1 12 6 7 18 53 15 53 -3 0
-9 -9 -15 -23 -15 -52 0 -75 -49 -35 -74 13 -8 23 -8 38 1 12 8 21 9 25 3 3
-6 14 -10 23 -10 12 0 13 3 4 12 -7 7 -12 30 -12 53 0 23 -5 46 -12 53 -17 17
-53 15 -68 -3z m55 -75 c-5 -15 -13 -20 -28 -18 -30 4 -28 31 3 38 31 8 33 7
25 -20z"/>
<path d="M1190 3918 c0 -25 12 -58 19 -53 10 6 1 65 -10 65 -5 0 -9 -6 -9 -12z"/>
<path d="M1211 3796 c-1 -29 2 -37 10 -29 8 8 8 19 1 40 -10 28 -10 28 -11
-11z"/>
<path d="M1186 3696 c-9 -15 -12 -27 -6 -31 5 -3 16 8 25 25 19 36 4 40 -19 6z"/>
<path d="M5245 2423 c8 -31 13 -39 20 -31 9 9 -6 58 -17 58 -6 0 -7 -11 -3
-27z"/>
<path d="M5280 2352 c0 -5 11 -19 25 -32 29 -27 32 -21 9 15 -16 24 -34 33
-34 17z"/>
<path d="M5360 2281 c0 -13 38 -33 53 -28 7 2 -3 11 -20 21 -18 9 -33 12 -33
7z"/>
<path d="M5455 2240 c-3 -4 5 -10 18 -14 32 -8 49 -7 43 3 -8 12 -55 20 -61
11z"/>
<path d="M5560 2210 c20 -13 63 -13 55 0 -3 6 -21 10 -38 10 -24 0 -28 -3 -17
-10z"/>
<path d="M5660 2192 c0 -10 51 -24 59 -16 7 6 -2 12 -32 19 -16 4 -27 3 -27
-3z"/>
<path d="M5760 2164 c0 -8 6 -14 13 -14 6 0 23 -3 36 -7 17 -4 22 -2 19 8 -6
19 -68 31 -68 13z"/>
<path d="M5860 2141 c0 -11 25 -21 51 -21 26 0 24 16 -3 24 -32 8 -48 7 -48
-3z"/>
<path d="M5962 2119 c5 -16 68 -25 68 -10 0 6 -6 11 -12 11 -7 0 -24 3 -37 7
-18 4 -23 2 -19 -8z"/>
<path d="M6064 2091 c7 -11 66 -20 66 -10 0 4 -7 10 -16 13 -24 9 -56 7 -50
-3z"/>
<path d="M6515 2082 c-29 -6 -43 -22 -19 -22 20 0 52 16 44 23 -3 2 -14 1 -25
-1z"/>
<path d="M6170 2070 c0 -5 14 -10 31 -10 17 0 28 4 24 10 -3 6 -17 10 -31 10
-13 0 -24 -4 -24 -10z"/>
<path d="M6270 2060 c0 -6 17 -10 37 -10 43 0 41 5 -4 13 -19 4 -33 2 -33 -3z"/>
<path d="M6375 2050 c8 -13 35 -13 55 0 11 7 5 10 -23 10 -23 0 -36 -4 -32
-10z"/>
<path d="M10838 1900 c-32 -25 -42 -71 -24 -115 16 -38 42 -55 84 -55 35 0 88
38 74 52 -7 7 -17 3 -31 -11 -12 -12 -30 -21 -41 -21 -31 0 -70 44 -70 78 0
60 71 94 107 52 20 -24 33 -26 33 -6 0 43 -89 60 -132 26z"/>
<path d="M11012 1814 c4 -79 18 -96 68 -77 16 6 30 7 30 2 0 -5 5 -9 10 -9 6
0 10 32 10 75 0 43 -4 75 -10 75 -5 0 -10 -18 -10 -39 0 -60 -15 -91 -44 -91
-29 0 -36 16 -36 81 0 27 -5 49 -10 49 -7 0 -10 -25 -8 -66z"/>
<path d="M11170 1805 c0 -43 4 -75 10 -75 6 0 10 22 10 48 0 49 13 76 40 84
11 4 21 -12 36 -61 30 -91 46 -90 77 3 18 54 22 76 13 76 -7 0 -21 -28 -32
-62 l-20 -62 -18 62 c-17 56 -21 61 -45 60 -14 -1 -32 -6 -38 -11 -9 -6 -13
-6 -13 2 0 6 -4 11 -10 11 -6 0 -10 -32 -10 -75z"/>
<path d="M11402 1868 c-16 -16 -15 -28 3 -28 8 0 15 5 15 11 0 18 45 5 48 -13
3 -14 -3 -18 -27 -18 -49 0 -79 -48 -49 -78 15 -15 50 -16 65 -1 8 8 17 7 31
-2 12 -7 25 -9 29 -5 4 5 2 11 -4 13 -8 3 -13 23 -13 53 0 31 -6 54 -16 64
-18 19 -65 21 -82 4z m68 -81 c0 -19 -21 -37 -42 -37 -18 0 -25 29 -11 43 12
12 53 7 53 -6z"/>
<path d="M10820 1550 c0 -60 4 -100 10 -100 6 0 10 4 10 9 0 5 14 4 30 -2 40
-15 62 -1 74 46 17 67 -20 111 -75 90 -28 -11 -29 -11 -29 23 0 19 -4 34 -10
34 -6 0 -10 -40 -10 -100z m96 6 c3 -13 4 -37 2 -52 -2 -25 -7 -29 -32 -29
-36 0 -53 37 -37 78 14 36 58 38 67 3z"/>
<path d="M11130 1550 c0 -60 4 -100 10 -100 6 0 10 40 10 100 0 60 -4 100 -10
100 -6 0 -10 -40 -10 -100z"/>
<path d="M11190 1640 c0 -5 5 -10 10 -10 6 0 10 5 10 10 0 6 -4 10 -10 10 -5
0 -10 -4 -10 -10z"/>
<path d="M10240 1545 c0 -78 3 -95 15 -95 10 0 15 11 15 35 0 35 0 35 44 35
52 0 76 19 76 60 0 45 -23 60 -91 60 l-59 0 0 -95z m124 53 c18 -29 -4 -53
-53 -56 l-41 -3 0 41 0 41 41 -3 c27 -2 46 -9 53 -20z"/>
<path d="M10442 1588 c-16 -16 -15 -28 3 -28 8 0 15 5 15 11 0 18 45 5 48 -13
3 -14 -3 -18 -27 -18 -49 0 -79 -48 -49 -78 15 -15 50 -16 65 -1 8 8 17 7 31
-2 12 -7 25 -9 29 -5 4 5 2 11 -4 13 -8 3 -13 23 -13 53 0 31 -6 54 -16 64
-18 19 -65 21 -82 4z m68 -81 c0 -19 -21 -37 -42 -37 -18 0 -25 29 -11 43 12
12 53 7 53 -6z"/>
<path d="M10580 1525 c0 -43 4 -75 10 -75 6 0 10 21 10 46 0 53 14 84 37 84
13 0 14 3 5 12 -8 8 -15 8 -27 -2 -10 -8 -15 -9 -15 -1 0 6 -4 11 -10 11 -6 0
-10 -32 -10 -75z"/>
<path d="M10682 1588 c-16 -16 -15 -28 3 -28 8 0 15 5 15 11 0 18 45 5 48 -13
3 -14 -3 -18 -27 -18 -49 0 -79 -48 -49 -78 15 -15 50 -16 65 -1 8 8 17 7 31
-2 12 -7 25 -9 29 -5 4 5 2 11 -4 13 -8 3 -13 23 -13 53 0 31 -6 54 -16 64
-18 19 -65 21 -82 4z m68 -81 c0 -19 -21 -37 -42 -37 -18 0 -25 29 -11 43 12
12 53 7 53 -6z"/>
<path d="M10990 1580 c-43 -43 -13 -130 45 -130 36 0 65 33 65 75 0 42 -29 75
-65 75 -14 0 -34 -9 -45 -20z m75 -55 c0 -49 -1 -50 -30 -50 -28 0 -30 3 -33
39 -5 54 3 68 35 64 26 -3 28 -6 28 -53z"/>
<path d="M11190 1525 c0 -43 4 -75 10 -75 6 0 10 32 10 75 0 43 -4 75 -10 75
-6 0 -10 -32 -10 -75z"/>
<path d="M11268 1589 c-39 -22 -30 -121 12 -134 29 -9 66 1 74 21 10 26 -2 29
-25 9 -31 -29 -54 -9 -54 46 0 50 22 63 56 33 25 -23 37 -10 14 16 -20 22 -50
25 -77 9z"/>
<path d="M11402 1588 c-16 -16 -15 -28 3 -28 8 0 15 5 15 11 0 18 45 5 48 -13
3 -14 -3 -18 -27 -18 -49 0 -79 -48 -49 -78 15 -15 50 -16 65 -1 8 8 17 7 31
-2 12 -7 25 -9 29 -5 4 5 2 11 -4 13 -8 3 -13 23 -13 53 0 31 -6 54 -16 64
-18 19 -65 21 -82 4z m68 -81 c0 -19 -21 -37 -42 -37 -18 0 -25 29 -11 43 12
12 53 7 53 -6z"/>
<path d="M4308 1343 c-16 -2 -28 -9 -28 -15 0 -6 10 -8 23 -4 12 3 28 6 35 6
6 0 12 5 12 10 0 6 -3 9 -7 9 -5 -1 -20 -4 -35 -6z"/>
<path d="M4394 1331 c7 -11 66 -20 66 -10 0 4 -7 10 -16 13 -24 9 -56 7 -50
-3z"/>
<path d="M4209 1301 c-13 -11 -21 -22 -17 -26 7 -7 57 25 58 38 0 13 -17 8
-41 -12z"/>
<path d="M4500 1302 c0 -11 59 -32 65 -23 2 5 -7 13 -21 20 -29 13 -44 14 -44
3z"/>
<path d="M4292 1264 c-28 -19 -30 -54 -2 -54 10 0 23 7 28 16 5 9 17 14 28 12
37 -7 27 -38 -30 -98 -31 -32 -56 -68 -56 -79 0 -20 6 -21 85 -21 78 0 85 2
85 20 0 18 -7 20 -57 20 l-58 0 53 50 c43 42 52 57 52 85 0 40 -29 65 -75 65
-17 0 -41 -7 -53 -16z"/>
<path d="M4600 1252 c0 -8 43 -32 55 -32 15 0 1 19 -20 28 -31 14 -35 15 -35
4z"/>
<path d="M4140 1214 c-12 -31 -12 -34 -2 -34 8 0 32 43 32 55 0 16 -22 1 -30
-21z"/>
<path d="M4712 1173 c15 -15 31 -23 35 -19 9 8 -32 46 -50 46 -7 0 1 -12 15
-27z"/>
<path d="M4120 1105 c0 -19 5 -35 10 -35 6 0 10 16 10 35 0 19 -4 35 -10 35
-5 0 -10 -16 -10 -35z"/>
<path d="M4781 1120 c0 -16 22 -50 33 -50 11 0 6 14 -14 40 -13 16 -20 20 -19
10z"/>
<path d="M4668 1057 c-16 -13 -28 -31 -28 -41 0 -16 3 -16 30 4 l30 21 0 -80
0 -81 -30 0 c-23 0 -30 -4 -30 -20 0 -18 7 -20 80 -20 73 0 80 2 80 20 0 15
-7 20 -25 20 l-25 0 0 100 0 100 -27 0 c-16 -1 -40 -11 -55 -23z"/>
<path d="M4140 1014 c0 -11 7 -29 16 -40 15 -18 15 -18 9 11 -8 37 -25 57 -25
29z"/>
<path d="M4841 998 c5 -18 9 -35 9 -37 0 -3 5 0 10 5 8 8 7 19 -1 37 -17 38
-29 34 -18 -5z"/>
<path d="M4857 923 c-11 -10 -8 -63 3 -63 6 0 10 16 10 35 0 36 -2 40 -13 28z"/>
<path d="M9402 698 c2 -15 11 -24 26 -26 18 -3 22 1 22 22 0 21 -5 26 -26 26
-21 0 -25 -4 -22 -22z"/>
<path d="M795 6403 c-26 -6 -44 -23 -24 -23 26 0 59 12 59 21 0 9 -3 10 -35 2z"/>
<path d="M1926 6378 c10 -18 19 -28 21 -21 5 15 -15 53 -28 53 -5 0 -2 -15 7
-32z"/>
<path d="M667 6373 c-9 -2 -15 -8 -13 -12 7 -10 66 -1 66 10 0 9 -22 10 -53 2z"/>
<path d="M573 6353 c-24 -5 -32 -23 -10 -23 26 0 57 13 51 21 -3 5 -8 8 -12 8
-4 -1 -17 -4 -29 -6z"/>
<path d="M458 6323 c-10 -2 -18 -9 -18 -15 0 -12 49 -2 65 13 9 9 -15 11 -47
2z"/>
<path d="M1960 6298 c0 -25 12 -58 19 -53 10 6 1 65 -10 65 -5 0 -9 -6 -9 -12z"/>
<path d="M344 6284 c-18 -15 -18 -15 11 -9 37 8 57 25 29 25 -11 0 -29 -7 -40
-16z"/>
<path d="M255 6252 c-17 -8 -25 -17 -18 -19 15 -5 69 22 57 30 -5 3 -23 -2
-39 -11z"/>
<path d="M159 6191 c-13 -11 -21 -22 -17 -26 7 -7 57 25 58 38 0 13 -17 8 -41
-12z"/>
<path d="M86 6118 c-24 -34 -19 -44 9 -18 14 13 25 27 25 32 0 16 -19 8 -34
-14z"/>
<path d="M6504 6115 c-11 -27 -9 -105 1 -105 7 0 9 15 7 35 -3 25 0 35 9 35
12 0 12 2 0 9 -7 5 -10 14 -7 20 4 6 12 9 17 6 5 -4 9 -1 9 4 0 17 -30 13 -36
-4z"/>
<path d="M6090 6111 c0 -4 11 -6 25 -3 28 5 33 -14 15 -49 -15 -28 -3 -23 16
6 13 20 14 28 4 40 -13 16 -60 21 -60 6z"/>
<path d="M6192 6108 c-17 -17 -15 -73 4 -89 23 -19 48 1 52 40 5 50 -27 78
-56 49z m44 -22 c7 -31 -3 -66 -21 -66 -15 0 -25 22 -25 54 0 42 36 51 46 12z"/>
<path d="M6270 6111 c0 -4 11 -6 25 -3 18 3 25 0 25 -12 0 -9 -7 -19 -17 -23
-14 -5 -13 -8 6 -15 30 -11 21 -33 -12 -33 -15 1 -27 -3 -27 -8 0 -4 15 -7 33
-5 24 2 33 8 35 26 2 12 -2 22 -9 22 -9 0 -8 4 1 15 10 12 10 18 0 30 -13 16
-60 21 -60 6z"/>
<path d="M6360 6111 c0 -4 11 -6 25 -3 28 5 33 -14 15 -49 -15 -28 -3 -23 16
6 13 20 14 28 4 40 -13 16 -60 21 -60 6z"/>
<path d="M6651 6102 c-16 -30 -13 -85 5 -108 14 -18 15 -18 10 -1 -15 48 -16
65 -6 91 13 34 6 46 -9 18z"/>
<path d="M6712 6108 c-17 -17 -15 -73 3 -88 25 -20 50 -8 50 25 0 25 -5 31
-27 35 -20 4 -25 9 -19 19 5 8 18 12 30 8 12 -3 21 -1 21 4 0 13 -44 11 -58
-3z m46 -61 c4 -22 -27 -35 -39 -16 -5 8 -9 20 -9 27 0 20 44 10 48 -11z"/>
<path d="M6822 6073 c-1 -30 -7 -53 -14 -56 -7 -3 1 -6 17 -6 17 0 25 3 18 7
-6 4 -13 30 -16 57 l-3 50 -2 -52z"/>
<path d="M6884 6106 c-11 -28 1 -51 28 -56 20 -4 25 -9 19 -19 -5 -8 -18 -12
-30 -8 -12 3 -21 1 -21 -4 0 -13 44 -11 58 3 7 7 12 26 12 43 0 17 -5 36 -12
43 -16 16 -47 15 -54 -2z m50 -12 c10 -26 7 -34 -13 -34 -23 0 -35 15 -27 35
7 20 32 19 40 -1z"/>
<path d="M7157 6100 c4 -14 7 -36 7 -50 0 -14 -3 -36 -7 -50 -8 -24 -7 -24 7
-6 9 11 16 36 16 56 0 20 -7 45 -16 56 -14 18 -15 18 -7 -6z"/>
<path d="M6554 6086 c-11 -29 0 -71 21 -74 15 -2 17 -1 6 6 -9 6 -12 21 -9 41
5 33 -8 53 -18 27z"/>
<path d="M7010 6050 c0 -22 5 -40 10 -40 6 0 10 16 10 36 0 24 4 34 13 31 6
-2 12 -18 12 -35 0 -18 4 -32 10 -32 6 0 9 17 7 40 -4 37 -7 40 -33 40 -27 0
-29 -3 -29 -40z"/>
<path d="M7088 6084 c6 -3 12 -21 12 -40 0 -19 5 -34 11 -34 6 0 9 16 7 37 -2
29 -8 38 -23 40 -11 2 -14 0 -7 -3z"/>
<path d="M30 6024 c-6 -14 -10 -30 -10 -35 0 -19 18 1 28 31 14 37 -4 41 -18
4z"/>
<path d="M6097 6033 c-16 -15 -5 -23 31 -22 27 1 31 3 12 6 -14 3 -28 9 -31
14 -3 5 -8 6 -12 2z"/>
<path d="M6367 6033 c-16 -15 -5 -23 31 -22 27 1 31 3 12 6 -14 3 -28 9 -31
14 -3 5 -8 6 -12 2z"/>
<path d="M6 5934 c-10 -25 -7 -94 4 -94 6 0 10 25 10 55 0 57 -3 66 -14 39z"/>
<path d="M9550 5940 c0 -5 9 -10 19 -10 52 0 51 6 51 -265 l0 -252 -42 -10
c-38 -9 -32 -11 57 -11 89 0 95 2 58 11 l-43 10 0 245 c0 155 4 242 9 237 6
-6 86 -120 179 -255 92 -135 176 -246 185 -248 16 -3 17 18 17 262 l0 266 40
6 c70 11 43 24 -50 24 -53 0 -90 -4 -90 -10 0 -5 10 -10 23 -10 47 0 48 -4 45
-214 l-3 -197 -149 216 -149 215 -79 0 c-45 0 -78 -4 -78 -10z"/>
<path d="M5070 5845 l0 -85 1560 0 1560 0 0 85 c0 50 -4 85 -10 85 -6 0 -10
-32 -10 -75 l0 -75 -374 0 -375 0 -3 33 c-2 17 -7 32 -13 32 -5 0 -11 -15 -13
-32 l-3 -33 -375 0 -374 0 0 54 c0 30 -4 58 -10 61 -6 4 -10 -17 -10 -54 l0
-61 -380 0 -380 0 0 35 c0 19 -4 35 -10 35 -5 0 -10 -16 -10 -35 l0 -35 -375
0 -375 0 0 75 c0 43 -4 75 -10 75 -6 0 -10 -35 -10 -85z"/>
<path d="M10825 5701 c-386 -130 -407 -139 -365 -144 25 -4 200 -18 390 -32
190 -14 366 -28 393 -31 26 -3 47 -2 47 3 0 4 -47 39 -105 77 l-105 69 50 57
c27 31 57 63 65 70 22 18 58 70 48 69 -4 0 -192 -63 -418 -138z"/>
<path d="M10 5773 c0 -17 5 -35 10 -38 13 -8 13 35 0 55 -7 11 -10 7 -10 -17z"/>
<path d="M38 5694 c-8 -8 20 -54 33 -54 14 0 10 12 -9 38 -10 13 -21 20 -24
16z"/>
<path d="M3940 5246 c0 -34 0 -34 -30 -23 -40 15 -62 1 -74 -46 -17 -67 20
-111 75 -90 16 7 29 7 29 2 0 -5 5 -9 10 -9 6 0 10 40 10 100 0 60 -4 100 -10
100 -5 0 -10 -15 -10 -34z m-9 -63 c14 -36 -2 -77 -31 -81 -28 -5 -40 12 -40
59 0 42 5 49 37 49 16 0 27 -8 34 -27z"/>
<path d="M4150 5180 c0 -60 4 -100 10 -100 6 0 10 40 10 100 0 60 -4 100 -10
100 -6 0 -10 -40 -10 -100z"/>
<path d="M3058 5250 c-32 -25 -42 -71 -24 -115 16 -38 42 -55 84 -55 35 0 88
38 74 52 -7 7 -17 3 -31 -11 -12 -12 -30 -21 -41 -21 -31 0 -70 44 -70 78 0
60 71 94 107 52 20 -24 33 -26 33 -6 0 43 -89 60 -132 26z"/>
<path d="M3232 5164 c4 -79 18 -96 68 -77 16 6 30 7 30 2 0 -5 5 -9 10 -9 6 0
10 32 10 75 0 43 -4 75 -10 75 -5 0 -10 -18 -10 -39 0 -60 -15 -91 -44 -91
-29 0 -36 16 -36 81 0 27 -5 49 -10 49 -7 0 -10 -25 -8 -66z"/>
<path d="M3390 5155 c0 -43 4 -75 10 -75 6 0 10 22 10 48 0 49 13 76 40 84 11
4 21 -12 36 -61 30 -91 46 -90 77 3 18 54 22 76 13 76 -7 0 -21 -28 -32 -62
l-20 -62 -18 62 c-17 56 -21 61 -45 60 -14 -1 -32 -6 -38 -11 -9 -6 -13 -6
-13 2 0 6 -4 11 -10 11 -6 0 -10 -32 -10 -75z"/>
<path d="M3622 5218 c-16 -16 -15 -28 3 -28 8 0 15 5 15 11 0 18 45 5 48 -13
3 -14 -3 -18 -27 -18 -49 0 -79 -48 -49 -78 15 -15 50 -16 65 -1 8 8 17 7 31
-2 12 -7 25 -9 29 -5 4 5 2 11 -4 13 -8 3 -13 23 -13 53 0 31 -6 54 -16 64
-18 19 -65 21 -82 4z m68 -81 c0 -19 -21 -37 -42 -37 -18 0 -25 29 -11 43 12
12 53 7 53 -6z"/>
<path d="M4014 5216 c-14 -11 -19 -26 -19 -61 0 -50 20 -75 60 -75 26 0 63 25
52 36 -4 4 -13 2 -19 -4 -17 -17 -55 -15 -62 4 -11 30 -6 34 45 34 51 0 51 0
45 28 -12 49 -61 67 -102 38z m74 -28 c3 -15 -4 -18 -32 -18 -34 0 -47 15 -29
34 13 13 58 1 61 -16z"/>
<path d="M3860 4900 c0 -60 4 -100 10 -100 6 0 10 40 10 100 0 60 -4 100 -10
100 -6 0 -10 -40 -10 -100z"/>
<path d="M3920 4990 c0 -5 5 -10 10 -10 6 0 10 5 10 10 0 6 -4 10 -10 10 -5 0
-10 -4 -10 -10z"/>
<path d="M3052 4974 c-46 -32 -16 -75 61 -90 42 -7 56 -26 37 -49 -16 -19 -61
-19 -86 0 -24 18 -45 19 -38 1 14 -37 112 -48 144 -16 38 38 20 64 -59 90 -34
11 -46 20 -46 35 0 27 59 34 86 9 25 -23 37 -10 14 16 -22 24 -81 27 -113 4z"/>
<path d="M3234 4936 c-14 -11 -19 -26 -19 -61 0 -50 20 -75 60 -75 26 0 63 25
52 36 -4 4 -13 2 -19 -4 -17 -17 -55 -15 -62 4 -11 30 -6 34 45 34 51 0 51 0
45 28 -12 49 -61 67 -102 38z m74 -28 c3 -15 -4 -18 -32 -18 -34 0 -47 15 -29
34 13 13 58 1 61 -16z"/>
<path d="M3370 4875 c0 -43 4 -75 10 -75 6 0 10 21 10 46 0 53 14 84 37 84 13
0 14 3 5 12 -8 8 -15 8 -27 -2 -10 -8 -15 -9 -15 -1 0 6 -4 11 -10 11 -6 0
-10 -32 -10 -75z"/>
<path d="M3460 4875 c0 -43 4 -75 10 -75 6 0 10 21 10 46 0 53 14 84 37 84 13
0 14 3 5 12 -8 8 -15 8 -27 -2 -10 -8 -15 -9 -15 -1 0 6 -4 11 -10 11 -6 0
-10 -32 -10 -75z"/>
<path d="M3562 4938 c-16 -16 -15 -28 3 -28 8 0 15 5 15 11 0 18 45 5 48 -13
3 -14 -3 -18 -27 -18 -49 0 -79 -48 -49 -78 15 -15 50 -16 65 -1 8 8 17 7 31
-2 12 -7 25 -9 29 -5 4 5 2 11 -4 13 -8 3 -13 23 -13 53 0 31 -6 54 -16 64
-18 19 -65 21 -82 4z m68 -81 c0 -19 -21 -37 -42 -37 -18 0 -25 29 -11 43 12
12 53 7 53 -6z"/>
<path d="M3711 4936 c-21 -26 -25 -83 -7 -111 17 -26 45 -32 77 -15 22 12 25
0 9 -31 -11 -20 -60 -27 -60 -9 0 6 -7 10 -15 10 -21 0 -19 -17 4 -30 30 -15
66 -12 84 8 13 14 17 39 17 105 0 51 -4 87 -10 87 -5 0 -10 -5 -10 -10 0 -7
-6 -7 -19 0 -27 14 -56 13 -70 -4z m80 -33 c16 -41 -1 -78 -37 -78 -26 0 -29
3 -32 39 -4 52 3 66 33 66 18 0 28 -7 36 -27z"/>
<path d="M3920 4875 c0 -43 4 -75 10 -75 6 0 10 32 10 75 0 43 -4 75 -10 75
-6 0 -10 -32 -10 -75z"/>
<path d="M3990 4930 c-43 -43 -13 -130 45 -130 36 0 65 33 65 75 0 42 -29 75
-65 75 -14 0 -34 -9 -45 -20z m75 -55 c0 -49 -1 -50 -30 -50 -28 0 -30 3 -33
39 -5 54 3 68 35 64 26 -3 28 -6 28 -53z"/>
<path d="M657 4343 c-11 -10 -8 -63 3 -63 6 0 10 16 10 35 0 36 -2 40 -13 28z"/>
<path d="M3750 4245 c-33 -33 -50 -58 -45 -63 22 -20 268 -163 272 -158 4 4
-165 276 -171 276 -1 0 -26 -25 -56 -55z"/>
<path d="M651 4178 c0 -45 3 -57 9 -43 12 28 12 105 0 105 -6 0 -10 -27 -9
-62z"/>
<path d="M647 4073 c-11 -10 -8 -51 3 -58 6 -4 10 8 10 29 0 37 -2 41 -13 29z"/>
<path d="M810 3935 c-28 -47 -49 -92 -46 -100 4 -11 21 -15 56 -15 43 0 50 -3
50 -20 0 -15 7 -20 25 -20 18 0 25 5 25 20 0 11 7 20 15 20 8 0 15 9 15 20 0
11 -7 20 -15 20 -12 0 -15 16 -15 80 l0 80 -29 0 c-25 0 -35 -10 -81 -85z m60
-25 c0 -49 -1 -50 -30 -50 -16 0 -30 2 -30 5 0 5 54 95 57 95 2 0 3 -22 3 -50z"/>
<path d="M650 3946 c0 -14 5 -28 10 -31 6 -4 10 7 10 24 0 17 -4 31 -10 31 -5
0 -10 -11 -10 -24z"/>
<path d="M670 3858 c0 -24 11 -48 22 -48 5 0 6 10 3 23 -10 30 -25 46 -25 25z"/>
<path d="M711 3770 c0 -16 22 -50 33 -50 11 0 6 14 -14 40 -13 16 -20 20 -19
10z"/>
<path d="M780 3691 c0 -12 37 -34 51 -29 5 2 -4 11 -21 21 -16 10 -30 14 -30
8z"/>
<path d="M874 3641 c8 -12 55 -20 61 -11 3 4 -5 10 -18 14 -32 8 -49 7 -43 -3z"/>
<path d="M5620 3170 c0 -5 5 -10 10 -10 6 0 10 5 10 10 0 6 -4 10 -10 10 -5 0
-10 -4 -10 -10z"/>
<path d="M6990 3170 c0 -5 5 -10 10 -10 6 0 10 5 10 10 0 6 -4 10 -10 10 -5 0
-10 -4 -10 -10z"/>
<path d="M5226 3088 c20 -46 38 -89 41 -95 3 -7 11 -13 18 -13 7 0 15 6 18 13
3 6 21 49 41 95 25 59 31 82 22 82 -8 0 -28 -34 -46 -77 -18 -43 -33 -79 -34
-80 -1 -2 -17 33 -35 77 -19 46 -38 80 -46 80 -10 0 -5 -23 21 -82z"/>
<path d="M6331 3148 c-5 -13 -23 -56 -40 -95 -21 -53 -26 -73 -16 -73 7 0 18
14 24 30 9 27 14 30 56 30 42 0 47 -3 56 -30 6 -16 17 -30 24 -30 10 0 2 28
-24 92 -39 97 -63 120 -80 76z m59 -80 c0 -5 -16 -8 -35 -8 -19 0 -35 2 -35 5
0 2 8 20 17 40 l17 36 18 -33 c9 -18 17 -36 18 -40z"/>
<path d="M5988 3140 c-10 -11 -13 -22 -8 -25 6 -4 10 -28 10 -55 0 -26 3 -55
6 -64 7 -17 54 -22 54 -6 0 6 -7 10 -15 10 -23 0 -21 98 3 116 16 13 16 13 0
14 -10 0 -18 7 -18 15 0 20 -11 18 -32 -5z"/>
<path d="M5392 3118 c-16 -16 -15 -28 3 -28 8 0 15 5 15 11 0 18 45 5 48 -13
3 -14 -3 -18 -27 -18 -49 0 -79 -48 -49 -78 15 -15 50 -16 65 -1 8 8 17 7 31
-2 12 -7 25 -9 29 -5 4 5 2 11 -4 13 -8 3 -13 23 -13 53 0 31 -6 54 -16 64
-18 19 -65 21 -82 4z m68 -81 c0 -19 -21 -37 -42 -37 -18 0 -25 29 -11 43 12
12 53 7 53 -6z"/>
<path d="M5530 3055 c0 -43 4 -75 10 -75 6 0 10 21 10 46 0 53 14 84 37 84 13
0 14 3 5 12 -8 8 -15 8 -27 -2 -10 -8 -15 -9 -15 -1 0 6 -4 11 -10 11 -6 0
-10 -32 -10 -75z"/>
<path d="M5620 3055 c0 -43 4 -75 10 -75 6 0 10 32 10 75 0 43 -4 75 -10 75
-6 0 -10 -32 -10 -75z"/>
<path d="M5692 3118 c-16 -16 -15 -28 3 -28 8 0 15 5 15 11 0 18 45 5 48 -13
3 -14 -3 -18 -27 -18 -49 0 -79 -48 -49 -78 15 -15 50 -16 65 -1 8 8 17 7 31
-2 12 -7 25 -9 29 -5 4 5 2 11 -4 13 -8 3 -13 23 -13 53 0 31 -6 54 -16 64
-18 19 -65 21 -82 4z m68 -81 c0 -19 -21 -37 -42 -37 -18 0 -25 29 -11 43 12
12 53 7 53 -6z"/>
<path d="M5830 3055 c0 -43 4 -75 10 -75 6 0 10 18 10 39 0 60 15 91 44 91 29
0 36 -16 36 -81 0 -27 5 -49 10 -49 7 0 10 25 8 66 -4 79 -18 96 -68 77 -16
-6 -30 -7 -30 -2 0 5 -4 9 -10 9 -6 0 -10 -32 -10 -75z"/>
<path d="M6084 3116 c-14 -11 -19 -26 -19 -61 0 -50 20 -75 60 -75 26 0 63 25
52 36 -4 4 -13 2 -19 -4 -17 -17 -55 -15 -62 4 -11 30 -6 34 45 34 51 0 51 0
45 28 -12 49 -61 67 -102 38z m74 -28 c3 -15 -4 -18 -32 -18 -34 0 -47 15 -29
34 13 13 58 1 61 -16z"/>
<path d="M6476 3114 c-9 -8 -16 -19 -16 -24 0 -14 30 -40 46 -40 27 0 53 -20
48 -35 -7 -18 -55 -20 -72 -3 -6 6 -15 8 -19 4 -11 -11 27 -36 55 -36 34 0 62
18 62 39 0 22 -15 35 -55 48 -39 12 -47 43 -11 43 14 0 28 -4 31 -10 9 -15 25
-12 25 4 0 28 -69 36 -94 10z"/>
<path d="M6628 3119 c-39 -22 -30 -121 12 -134 29 -9 66 1 74 21 10 26 -2 29
-25 9 -31 -29 -54 -9 -54 46 0 50 22 63 56 33 25 -23 37 -10 14 16 -20 22 -50
25 -77 9z"/>
<path d="M6762 3118 c-16 -16 -15 -28 3 -28 8 0 15 5 15 11 0 18 45 5 48 -13
3 -14 -3 -18 -27 -18 -49 0 -79 -48 -49 -78 15 -15 50 -16 65 -1 8 8 17 7 31
-2 12 -7 25 -9 29 -5 4 5 2 11 -4 13 -8 3 -13 23 -13 53 0 31 -6 54 -16 64
-18 19 -65 21 -82 4z m68 -81 c0 -19 -21 -37 -42 -37 -18 0 -25 29 -11 43 12
12 53 7 53 -6z"/>
<path d="M6900 3055 c0 -43 4 -75 10 -75 6 0 10 21 10 46 0 53 14 84 37 84 13
0 14 3 5 12 -8 8 -15 8 -27 -2 -10 -8 -15 -9 -15 -1 0 6 -4 11 -10 11 -6 0
-10 -32 -10 -75z"/>
<path d="M6990 3055 c0 -43 4 -75 10 -75 6 0 10 32 10 75 0 43 -4 75 -10 75
-6 0 -10 -32 -10 -75z"/>
<path d="M5584 2908 c-3 -4 11 -8 30 -8 20 0 36 2 36 4 0 8 -61 12 -66 4z"/>
<path d="M5480 2900 c0 -5 11 -10 24 -10 14 0 28 5 31 10 4 6 -7 10 -24 10
-17 0 -31 -4 -31 -10z"/>
<path d="M5690 2900 c0 -5 14 -10 30 -10 17 0 30 5 30 10 0 6 -13 10 -30 10
-16 0 -30 -4 -30 -10z"/>
<path d="M5391 2889 c-13 -5 -21 -12 -18 -15 8 -9 67 6 67 17 0 11 -18 11 -49
-2z"/>
<path d="M5790 2890 c0 -5 17 -10 38 -10 27 0 33 3 22 10 -20 13 -60 13 -60 0z"/>
<path d="M5905 2870 c28 -12 55 -12 55 0 0 6 -17 10 -37 9 -31 0 -34 -2 -18
-9z"/>
<path d="M6000 2859 c0 -8 26 -19 46 -19 27 0 14 18 -16 22 -16 3 -30 1 -30
-3z"/>
<path d="M5315 2830 c-10 -11 -15 -23 -12 -27 8 -7 47 25 47 39 0 14 -16 9
-35 -12z"/>
<path d="M6104 2831 c7 -11 56 -21 56 -11 0 9 -25 20 -46 20 -9 0 -13 -4 -10
-9z"/>
<path d="M6200 2811 c0 -9 33 -21 60 -21 22 0 -1 16 -32 24 -16 3 -28 2 -28
-3z"/>
<path d="M5462 2784 c-25 -18 -30 -65 -8 -87 12 -12 12 -16 -5 -30 -62 -54 37
-136 114 -96 12 7 25 17 29 23 14 20 8 56 -11 73 -17 14 -17 18 -5 30 8 8 14
27 14 43 0 35 -31 60 -75 60 -17 0 -41 -7 -53 -16z m76 -53 c-4 -35 -41 -37
-46 -2 -4 26 13 42 35 34 8 -3 13 -16 11 -32z m12 -101 c0 -11 -8 -24 -18 -29
-39 -21 -74 36 -35 58 23 12 53 -4 53 -29z"/>
<path d="M6300 2781 c0 -11 59 -26 67 -17 3 3 -6 10 -21 16 -34 12 -46 13 -46
1z"/>
<path d="M5256 2748 c-18 -25 -20 -38 -8 -38 10 0 35 50 28 57 -2 2 -11 -6
-20 -19z"/>
<path d="M5955 2735 c-31 -30 -32 -73 -4 -109 22 -28 66 -35 87 -14 16 16 17
-5 2 -33 -11 -20 -45 -26 -55 -9 -9 15 -45 12 -45 -4 0 -20 39 -46 70 -46 59
0 99 71 85 154 -13 82 -88 114 -140 61z m84 -37 c11 -29 -4 -58 -29 -58 -21 0
-34 31 -25 60 9 27 44 26 54 -2z"/>
<path d="M6400 2752 c0 -10 33 -22 60 -22 13 1 13 2 0 9 -27 16 -60 22 -60 13z"/>
<path d="M6506 2711 c15 -14 54 -23 54 -13 0 11 -24 22 -48 22 -10 0 -12 -3
-6 -9z"/>
<path d="M6619 2659 c13 -11 27 -17 30 -13 7 7 -28 34 -43 34 -6 -1 0 -10 13
-21z"/>
<path d="M6681 2610 c0 -16 22 -50 33 -50 12 0 6 18 -14 41 -13 17 -19 19 -19
9z"/>
<path d="M6338 2557 c-16 -13 -28 -31 -28 -41 0 -16 3 -16 30 4 l30 21 0 -80
0 -81 -30 0 c-23 0 -30 -4 -30 -20 0 -18 7 -20 80 -20 73 0 80 2 80 20 0 15
-7 20 -25 20 l-25 0 0 100 0 100 -27 0 c-16 -1 -40 -11 -55 -23z"/>
<path d="M6519 2554 c-33 -35 -35 -138 -3 -181 42 -56 114 -35 134 38 33 121
-58 221 -131 143z m85 -55 c18 -74 -18 -149 -50 -104 -17 22 -18 98 -3 126 16
30 43 19 53 -22z"/>
<path d="M6725 2493 c7 -30 13 -39 19 -32 8 8 -6 59 -16 59 -6 0 -7 -11 -3
-27z"/>
<path d="M6730 2384 c0 -21 4 -33 10 -29 6 3 10 19 10 36 0 16 -4 29 -10 29
-5 0 -10 -16 -10 -36z"/>
<path d="M6715 2289 c-9 -41 0 -48 13 -10 6 17 7 33 2 36 -5 3 -11 -9 -15 -26z"/>
<path d="M11903 1729 c-19 -12 -33 -29 -33 -41 0 -19 1 -19 30 2 l30 21 0 -80
0 -81 -30 0 c-23 0 -30 -4 -30 -20 0 -18 7 -20 80 -20 73 0 80 2 80 20 0 15
-7 20 -25 20 l-25 0 0 100 c0 97 -1 100 -22 100 -13 0 -38 -10 -55 -21z"/>
<path d="M12073 1729 c-19 -12 -33 -29 -33 -41 0 -19 1 -19 30 2 l30 21 0 -80
0 -81 -30 0 c-23 0 -30 -4 -30 -20 0 -18 7 -20 80 -20 73 0 80 2 80 20 0 15
-7 20 -25 20 l-25 0 0 100 c0 97 -1 100 -22 100 -13 0 -38 -10 -55 -21z"/>
<path d="M1705 985 c-14 -13 -25 -29 -25 -35 0 -16 47 -12 54 6 3 9 15 14 28
12 32 -4 33 -52 1 -56 -29 -4 -32 -42 -4 -42 24 0 43 -23 35 -44 -8 -20 -53
-21 -60 -1 -8 19 -54 20 -54 1 0 -24 50 -56 87 -56 23 0 42 8 58 25 31 30 31
49 2 79 -22 22 -23 24 -5 35 26 16 24 66 -4 85 -34 24 -85 20 -113 -9z"/>
<path d="M4300 730 c0 -15 22 -60 30 -60 17 0 18 15 3 41 -17 29 -33 38 -33
19z"/>
<path d="M973 640 c-29 -12 -43 -40 -43 -90 0 -82 85 -120 147 -65 31 27 13
35 -21 10 -30 -22 -62 -18 -85 11 -28 36 -26 70 5 100 19 20 31 24 52 19 15
-3 33 -13 40 -23 8 -11 15 -13 23 -5 7 7 3 17 -17 32 -28 22 -64 26 -101 11z"/>
<path d="M1930 640 c0 -5 5 -10 10 -10 6 0 10 5 10 10 0 6 -4 10 -10 10 -5 0
-10 -4 -10 -10z"/>
<path d="M1746 594 c-3 -26 -6 -69 -6 -95 l0 -49 58 0 c32 0 65 6 74 13 27 21
29 46 6 69 -14 14 -18 23 -10 26 7 2 12 17 12 32 0 36 -23 50 -83 50 l-44 0
-7 -46z m104 11 c21 -26 4 -45 -40 -45 -38 0 -40 2 -40 30 0 27 3 30 34 30 18
0 39 -7 46 -15z m11 -81 c21 -25 -1 -49 -50 -52 -41 -3 -41 -3 -41 32 0 35 1
36 39 36 23 0 44 -6 52 -16z"/>
<path d="M4366 615 c9 -14 23 -25 32 -25 12 0 10 6 -8 25 -13 14 -27 25 -32
25 -5 0 -1 -11 8 -25z"/>
<path d="M4742 600 c-23 -19 -28 -30 -13 -30 16 0 55 37 45 42 -5 4 -19 -2
-32 -12z"/>
<path d="M1132 544 c4 -79 18 -96 68 -77 16 6 30 7 30 2 0 -5 5 -9 10 -9 6 0
10 32 10 75 0 43 -4 75 -10 75 -5 0 -10 -21 -10 -46 0 -58 -14 -84 -45 -84
-30 0 -41 32 -31 90 5 32 3 40 -9 40 -13 0 -15 -12 -13 -66z"/>
<path d="M1290 535 c0 -43 4 -75 10 -75 6 0 10 17 10 38 0 55 9 78 35 90 21
10 23 7 42 -56 27 -91 43 -91 77 -2 30 83 30 80 12 80 -8 0 -21 -25 -31 -62
l-18 -63 -20 63 c-17 56 -21 62 -46 62 -15 0 -32 -5 -39 -12 -9 -9 -12 -9 -12
0 0 7 -4 12 -10 12 -6 0 -10 -32 -10 -75z"/>
<path d="M6735 571 c-167 -42 -168 -39 20 -66 61 -9 120 -18 133 -21 21 -4 22
-2 22 61 0 46 -4 65 -12 64 -7 -1 -80 -18 -163 -38z"/>
<path d="M1528 589 c-22 -12 -23 -29 -3 -29 8 0 15 5 15 10 0 18 39 10 50 -10
10 -18 8 -20 -17 -20 -55 0 -92 -47 -61 -78 16 -16 50 -15 67 1 11 10 14 10
18 0 6 -15 43 -17 43 -3 0 6 -4 10 -10 10 -5 0 -10 22 -10 49 0 71 -40 101
-92 70z m62 -88 c0 -19 -18 -31 -46 -31 -14 0 -20 31 -7 43 3 4 17 7 30 7 16
0 23 -6 23 -19z"/>
<path d="M1930 525 c0 -43 4 -75 10 -75 6 0 10 32 10 75 0 43 -4 75 -10 75 -6
0 -10 -32 -10 -75z"/>
<path d="M2008 589 c-22 -12 -23 -29 -3 -29 8 0 15 5 15 10 0 18 39 10 50 -10
10 -18 8 -20 -17 -20 -55 0 -92 -47 -61 -78 16 -16 50 -15 67 1 11 10 14 10
18 0 6 -15 43 -17 43 -3 0 6 -4 10 -10 10 -5 0 -10 22 -10 49 0 71 -40 101
-92 70z m62 -88 c0 -19 -18 -31 -46 -31 -14 0 -20 31 -7 43 3 4 17 7 30 7 16
0 23 -6 23 -19z"/>
<path d="M2152 588 c-28 -28 -11 -58 43 -75 17 -5 30 -16 30 -24 0 -18 -52
-24 -71 -8 -8 6 -18 9 -22 5 -13 -14 33 -37 67 -34 67 6 67 61 1 83 -19 6 -36
17 -38 23 -6 19 27 26 54 12 30 -16 41 -8 19 14 -19 19 -66 21 -83 4z"/>
<path d="M2292 578 c-28 -28 -11 -58 43 -75 17 -5 30 -16 30 -24 0 -18 -52
-24 -71 -8 -8 6 -18 9 -22 5 -13 -14 33 -37 67 -34 67 6 67 61 1 83 -19 6 -36
17 -38 23 -6 19 27 26 54 12 30 -16 41 -8 19 14 -19 19 -66 21 -83 4z"/>
<path d="M2434 576 c-27 -20 -27 -102 0 -122 50 -36 106 -3 106 63 0 60 -59
93 -106 59z m71 -61 c0 -45 -2 -50 -24 -53 -28 -4 -41 12 -41 54 0 36 17 56
45 52 17 -3 20 -11 20 -53z"/>
<path d="M2570 515 c0 -41 4 -75 9 -75 11 0 21 36 21 82 0 32 4 39 26 44 34 9
44 -7 44 -73 0 -29 5 -53 10 -53 14 0 13 123 -2 138 -16 16 -50 15 -67 0 -11
-10 -14 -10 -18 0 -12 33 -23 4 -23 -63z"/>
<path d="M2744 576 c-14 -11 -19 -26 -19 -61 0 -53 20 -75 66 -75 34 0 59 32
59 77 0 60 -59 93 -106 59z m71 -61 c0 -45 -2 -50 -24 -53 -28 -4 -41 12 -41
54 0 36 17 56 45 52 17 -3 20 -11 20 -53z"/>
<path d="M4443 567 c7 -21 127 -37 127 -17 0 6 -15 10 -33 10 -17 0 -47 4 -65
9 -25 8 -32 7 -29 -2z"/>
<path d="M4638 563 c-32 -5 -38 -23 -9 -23 26 0 51 10 51 21 0 5 -3 8 -7 8 -5
-1 -20 -4 -35 -6z"/>
<path d="M4580 500 c0 -5 5 -10 10 -10 6 0 10 5 10 10 0 6 -4 10 -10 10 -5 0
-10 -4 -10 -10z"/>
<path d="M3863 488 c-13 -6 -23 -18 -23 -27 0 -12 3 -12 12 -3 23 23 28 12 28
-58 0 -68 -1 -70 -25 -70 -14 0 -25 -4 -25 -10 0 -6 27 -10 60 -10 33 0 60 4
60 10 0 6 -9 10 -20 10 -18 0 -20 7 -20 85 0 90 -3 94 -47 73z"/>
<path d="M3983 474 c-15 -24 -15 -29 -2 -53 8 -14 24 -27 36 -29 29 -4 57 38
47 70 -14 45 -55 51 -81 12z m62 -13 c8 -26 -4 -51 -25 -51 -10 0 -21 7 -24
16 -10 25 3 54 24 54 10 0 21 -8 25 -19z"/>
<path d="M4186 418 c20 -46 38 -89 41 -95 3 -7 11 -13 18 -13 7 0 15 6 18 13
3 6 21 49 41 95 25 59 31 82 22 82 -8 0 -28 -34 -46 -77 -18 -43 -33 -79 -34
-80 -1 -2 -17 33 -35 77 -19 46 -38 80 -46 80 -10 0 -5 -23 21 -82z"/>
<path d="M4948 470 c-10 -11 -13 -22 -8 -25 6 -4 10 -28 10 -55 0 -26 3 -55 6
-64 7 -17 54 -22 54 -6 0 6 -7 10 -15 10 -23 0 -21 98 3 116 16 13 16 13 0 14
-10 0 -18 7 -18 15 0 20 -11 18 -32 -5z"/>
<path d="M4352 448 c-16 -16 -15 -28 3 -28 8 0 15 5 15 11 0 18 45 5 48 -13 3
-14 -3 -18 -27 -18 -49 0 -79 -48 -49 -78 15 -15 50 -16 65 -1 8 8 17 7 31 -2
12 -7 25 -9 29 -5 4 5 2 11 -4 13 -8 3 -13 23 -13 53 0 31 -6 54 -16 64 -18
19 -65 21 -82 4z m68 -81 c0 -19 -21 -37 -42 -37 -18 0 -25 29 -11 43 12 12
53 7 53 -6z"/>
<path d="M4490 385 c0 -43 4 -75 10 -75 6 0 10 21 10 46 0 53 14 84 37 84 13
0 14 3 5 12 -8 8 -15 8 -27 -2 -10 -8 -15 -9 -15 -1 0 6 -4 11 -10 11 -6 0
-10 -32 -10 -75z"/>
<path d="M4580 385 c0 -43 4 -75 10 -75 6 0 10 32 10 75 0 43 -4 75 -10 75 -6
0 -10 -32 -10 -75z"/>
<path d="M4652 448 c-16 -16 -15 -28 3 -28 8 0 15 5 15 11 0 18 45 5 48 -13 3
-14 -3 -18 -27 -18 -49 0 -79 -48 -49 -78 15 -15 50 -16 65 -1 8 8 17 7 31 -2
12 -7 25 -9 29 -5 4 5 2 11 -4 13 -8 3 -13 23 -13 53 0 31 -6 54 -16 64 -18
19 -65 21 -82 4z m68 -81 c0 -19 -21 -37 -42 -37 -18 0 -25 29 -11 43 12 12
53 7 53 -6z"/>
<path d="M4790 385 c0 -43 4 -75 10 -75 6 0 10 18 10 39 0 60 15 91 44 91 29
0 36 -16 36 -81 0 -27 5 -49 10 -49 7 0 10 25 8 66 -4 79 -18 96 -68 77 -16
-6 -30 -7 -30 -2 0 5 -4 9 -10 9 -6 0 -10 -32 -10 -75z"/>
<path d="M5044 446 c-14 -11 -19 -26 -19 -61 0 -50 20 -75 60 -75 26 0 63 25
52 36 -4 4 -13 2 -19 -4 -17 -17 -55 -15 -62 4 -11 30 -6 34 45 34 51 0 51 0
45 28 -12 49 -61 67 -102 38z m74 -28 c3 -15 -4 -18 -32 -18 -34 0 -47 15 -29
34 13 13 58 1 61 -16z"/>
<path d="M9195 440 c-3 -11 -11 -20 -18 -20 -8 0 -8 -3 1 -12 7 -7 12 -36 12
-65 0 -29 5 -53 10 -53 6 0 10 25 10 55 0 42 3 55 15 55 8 0 15 5 15 10 0 6
-7 10 -15 10 -8 0 -15 5 -15 10 0 6 7 10 15 10 8 0 15 5 15 10 0 19 -39 10
-45 -10z"/>
<path d="M9250 450 c0 -5 7 -10 15 -10 8 0 15 5 15 10 0 6 -7 10 -15 10 -8 0
-15 -4 -15 -10z"/>
<path d="M9440 450 c0 -5 7 -10 15 -10 8 0 15 5 15 10 0 6 -7 10 -15 10 -8 0
-15 -4 -15 -10z"/>
<path d="M9620 375 c0 -92 17 -118 22 -32 3 48 5 52 31 55 27 3 27 2 27 -52 0
-32 4 -56 10 -56 7 0 10 24 8 63 -3 56 -5 62 -26 65 -13 2 -30 -2 -38 -8 -12
-10 -14 -7 -14 19 0 17 -4 31 -10 31 -6 0 -10 -35 -10 -85z"/>
<path d="M7758 431 c-9 -10 -12 -23 -8 -27 5 -5 10 -31 12 -59 3 -43 6 -50 26
-53 12 -2 22 1 22 7 0 6 -7 11 -15 11 -22 0 -20 79 3 96 16 12 16 13 0 14 -9
0 -18 7 -20 15 -2 13 -6 13 -20 -4z"/>
<path d="M8044 437 c-6 -11 -23 -18 -47 -19 l-37 -1 0 -64 c0 -35 4 -63 10
-63 6 0 10 23 10 51 0 51 5 57 50 63 3 1 7 -24 10 -54 4 -48 8 -55 28 -58 12
-2 22 1 22 7 0 6 -7 11 -15 11 -22 0 -20 79 3 96 16 12 16 13 0 14 -9 0 -18 8
-20 18 -3 16 -4 16 -14 -1z"/>
<path d="M7640 405 c-18 -22 -6 -41 34 -55 52 -17 49 -44 -4 -37 -35 4 -39 3
-29 -9 15 -18 63 -18 79 1 19 23 7 47 -30 60 -44 15 -41 30 5 29 29 -1 33 1
24 12 -15 19 -63 18 -79 -1z"/>
<path d="M7840 405 c-7 -9 -9 -19 -5 -23 4 -4 10 -1 12 6 7 18 53 15 53 -3 0
-9 -9 -15 -23 -15 -52 0 -75 -49 -35 -74 13 -8 23 -8 38 1 12 8 21 9 25 3 3
-6 14 -10 23 -10 12 0 13 3 4 12 -7 7 -12 30 -12 53 0 23 -5 46 -12 53 -17 17
-53 15 -68 -3z m55 -75 c-5 -15 -13 -20 -28 -18 -30 4 -28 31 3 38 31 8 33 7
25 -20z"/>
<path d="M9250 355 c0 -51 3 -65 15 -65 12 0 15 14 15 65 0 51 -3 65 -15 65
-12 0 -15 -14 -15 -65z"/>
<path d="M9310 353 c0 -76 18 -85 22 -10 3 48 5 52 31 55 27 3 27 2 27 -52 0
-32 4 -56 10 -56 7 0 10 24 8 63 l-3 62 -47 1 -48 1 0 -64z"/>
<path d="M9440 355 c0 -51 3 -65 15 -65 12 0 15 14 15 65 0 51 -3 65 -15 65
-12 0 -15 -14 -15 -65z"/>
<path d="M9500 405 c-18 -22 -6 -41 34 -55 52 -17 49 -44 -4 -37 -35 4 -39 3
-29 -9 15 -18 63 -18 79 1 19 23 7 47 -30 60 -44 15 -41 30 5 29 29 -1 33 1
24 12 -15 19 -63 18 -79 -1z"/>
<path d="M1085 350 c-26 -29 -32 -127 -11 -168 9 -18 21 -32 26 -32 14 0 12
12 -5 34 -22 29 -19 114 5 154 22 36 13 43 -15 12z"/>
<path d="M1160 350 c-27 -27 -35 -65 -20 -101 14 -34 37 -49 73 -49 29 0 75
34 60 43 -6 4 -16 0 -23 -8 -7 -8 -25 -15 -41 -15 -32 0 -49 23 -49 69 0 54
53 80 92 44 10 -9 21 -13 26 -9 12 13 -38 46 -69 46 -16 0 -38 -9 -49 -20z"/>
<path d="M1873 348 c-31 -15 -46 -65 -32 -106 13 -38 35 -52 79 -52 47 0 70
16 70 50 0 28 -3 30 -35 30 -19 0 -35 -4 -35 -10 0 -5 12 -10 26 -10 19 0 25
-5 22 -17 -4 -25 -70 -30 -92 -8 -20 21 -21 79 0 99 20 20 58 20 78 0 9 -8 21
-14 28 -12 7 3 4 12 -10 26 -24 24 -63 28 -99 10z"/>
<path d="M2460 335 c0 -22 -3 -24 -29 -19 -22 5 -32 1 -45 -17 -20 -30 -21
-73 0 -93 9 -10 30 -15 55 -14 l39 1 0 84 c0 49 -4 83 -10 83 -5 0 -10 -11
-10 -25z m-5 -80 c0 -36 -3 -40 -27 -43 -30 -4 -43 20 -32 63 5 21 11 26 33
23 23 -3 26 -7 26 -43z"/>
<path d="M2655 320 c20 -39 20 -129 -1 -158 -20 -28 -10 -43 11 -16 22 28 36
90 29 121 -10 40 -33 83 -45 83 -5 0 -3 -13 6 -30z"/>
<path d="M1312 268 l3 -63 48 -1 47 -1 0 64 c0 76 -18 85 -22 11 -3 -49 -5
-53 -30 -56 -28 -3 -28 -2 -28 52 0 32 -4 56 -10 56 -7 0 -10 -24 -8 -62z"/>
<path d="M1450 263 c0 -35 4 -63 10 -63 6 0 10 23 10 50 0 43 3 52 23 59 20 8
23 4 40 -50 11 -33 25 -59 32 -59 12 0 60 119 51 128 -11 10 -24 -11 -36 -55
l-13 -48 -16 52 -16 53 -42 -2 -43 -1 0 -64z"/>
<path d="M1650 315 c-7 -9 -9 -19 -5 -23 4 -4 10 -1 12 6 7 18 53 15 53 -3 0
-9 -9 -15 -23 -15 -52 0 -75 -49 -35 -74 13 -8 23 -8 38 1 12 8 21 9 25 3 3
-6 14 -10 23 -10 12 0 13 3 4 12 -7 7 -12 30 -12 53 0 23 -5 46 -12 53 -17 17
-53 15 -68 -3z m58 -72 c-4 -20 -35 -30 -50 -15 -15 15 0 32 28 32 19 0 25 -5
22 -17z"/>
<path d="M2030 253 c0 -35 4 -63 10 -63 6 0 10 23 10 51 0 42 3 52 20 56 30 8
24 22 -10 21 l-30 -1 0 -64z"/>
<path d="M2120 305 c-7 -9 -9 -19 -5 -23 4 -4 10 -1 12 6 7 18 53 15 53 -3 0
-9 -9 -15 -23 -15 -52 0 -75 -49 -35 -74 13 -8 23 -8 38 1 12 8 21 9 25 3 3
-6 14 -10 23 -10 12 0 13 3 4 12 -7 7 -12 30 -12 53 0 23 -5 46 -12 53 -17 17
-53 15 -68 -3z m58 -72 c-4 -20 -35 -30 -50 -15 -15 15 0 32 28 32 19 0 25 -5
22 -17z"/>
<path d="M2240 255 c0 -78 18 -88 22 -12 3 48 5 52 31 55 27 3 27 2 27 -52 0
-31 5 -56 10 -56 6 0 10 27 10 60 0 55 -2 60 -25 66 -15 4 -32 1 -40 -6 -10
-9 -15 -9 -15 -1 0 6 -4 11 -10 11 -6 0 -10 -28 -10 -65z"/>
<path d="M2526 298 c-41 -59 4 -126 68 -102 9 3 16 13 16 22 0 12 -3 13 -12 4
-17 -17 -55 -15 -62 4 -9 24 -9 24 39 24 37 0 45 3 45 18 0 24 -31 52 -58 52
-11 0 -28 -10 -36 -22z m72 -15 c2 -9 -8 -13 -32 -13 -28 0 -34 3 -29 16 7 18
54 16 61 -3z"/>
<path d="M3377 191 c-10 -17 -17 -50 -17 -81 0 -49 23 -110 42 -110 11 0 10 3
-7 36 -19 37 -19 124 0 150 16 21 19 34 7 34 -4 0 -15 -13 -25 -29z"/>
<path d="M3450 139 c17 -44 30 -82 30 -85 0 -2 7 -4 15 -4 8 0 15 2 15 4 0 3
13 41 30 85 21 57 26 81 17 81 -7 0 -23 -31 -36 -70 -12 -38 -24 -70 -26 -70
-2 0 -14 32 -26 70 -13 39 -29 70 -36 70 -9 0 -4 -24 17 -81z"/>
<path d="M3770 210 c0 -5 7 -10 15 -10 8 0 15 5 15 10 0 6 -7 10 -15 10 -8 0
-15 -4 -15 -10z"/>
<path d="M4450 195 c0 -22 -3 -24 -28 -19 -37 7 -62 -17 -62 -59 0 -49 14 -61
65 -63 l45 -2 0 84 c0 49 -4 84 -10 84 -5 0 -10 -11 -10 -25z m-5 -80 c0 -36
-3 -40 -27 -43 -30 -4 -44 23 -34 64 5 20 12 25 34 22 24 -3 27 -7 27 -43z"/>
<path d="M4640 135 c0 -50 4 -85 10 -85 6 0 10 35 10 85 0 50 -4 85 -10 85 -6
0 -10 -35 -10 -85z"/>
<path d="M4770 135 c0 -50 4 -85 10 -85 6 0 10 16 10 35 0 32 3 35 28 35 22 0
32 -7 45 -35 9 -19 23 -35 32 -35 12 0 10 7 -6 35 -19 32 -19 36 -5 51 22 21
20 61 -3 74 -11 5 -40 10 -65 10 l-46 0 0 -85z m108 41 c5 -24 -14 -36 -55
-36 -30 0 -33 3 -33 31 0 29 1 30 42 27 33 -2 44 -8 46 -22z"/>
<path d="M5200 210 c0 -5 7 -10 15 -10 8 0 15 5 15 10 0 6 -7 10 -15 10 -8 0
-15 -4 -15 -10z"/>
<path d="M5265 200 c-3 -11 -11 -20 -18 -20 -8 0 -8 -3 1 -12 7 -7 12 -36 12
-65 0 -29 5 -53 10 -53 6 0 10 25 10 55 0 42 3 55 15 55 8 0 15 5 15 10 0 6
-7 10 -15 10 -8 0 -15 5 -15 10 0 6 7 10 15 10 8 0 15 5 15 10 0 19 -39 10
-45 -10z"/>
<path d="M5320 210 c0 -5 7 -10 15 -10 8 0 15 5 15 10 0 6 -7 10 -15 10 -8 0
-15 -4 -15 -10z"/>
<path d="M5380 135 c0 -50 4 -85 10 -85 6 0 10 35 10 85 0 50 -4 85 -10 85 -6
0 -10 -35 -10 -85z"/>
<path d="M5560 213 c0 -5 7 -17 15 -27 9 -12 15 -42 15 -76 0 -34 -6 -64 -15
-76 -16 -21 -19 -34 -7 -34 19 0 42 61 42 110 0 31 -7 64 -17 81 -16 27 -33
39 -33 22z"/>
<path d="M4098 191 c-9 -10 -12 -23 -8 -27 5 -5 10 -31 12 -59 3 -43 6 -50 26
-53 12 -2 22 1 22 7 0 6 -7 11 -15 11 -22 0 -20 79 3 96 16 12 16 13 0 14 -9
0 -18 7 -20 15 -2 13 -6 13 -20 -4z"/>
<path d="M5068 191 c-9 -10 -12 -23 -8 -27 5 -5 10 -31 12 -59 3 -43 6 -50 26
-53 12 -2 22 1 22 7 0 6 -7 11 -15 11 -11 0 -15 12 -15 45 0 25 5 46 10 47 32
4 35 1 40 -52 4 -48 8 -55 28 -58 12 -2 22 1 22 7 0 6 -7 11 -15 11 -22 0 -20
79 3 96 16 13 16 13 0 14 -10 0 -18 8 -18 18 -1 16 -1 16 -14 0 -16 -22 -53
-23 -58 -3 -2 13 -6 13 -20 -4z"/>
<path d="M3580 165 c-7 -9 -9 -19 -5 -23 4 -4 10 -1 12 6 7 18 53 15 53 -3 0
-9 -9 -15 -23 -15 -52 0 -75 -49 -35 -74 13 -8 23 -8 38 1 12 8 21 9 25 3 3
-6 14 -10 23 -10 12 0 13 3 4 12 -7 7 -12 30 -12 53 0 23 -5 46 -12 53 -17 17
-53 15 -68 -3z m55 -75 c-5 -15 -13 -20 -28 -18 -30 4 -28 31 3 38 31 8 33 7
25 -20z"/>
<path d="M3700 113 c0 -35 4 -63 10 -63 6 0 10 23 10 51 0 42 3 52 20 56 30 8
24 22 -10 21 l-30 -1 0 -64z"/>
<path d="M3770 115 c0 -51 3 -65 15 -65 12 0 15 14 15 65 0 51 -3 65 -15 65
-12 0 -15 -14 -15 -65z"/>
<path d="M3840 165 c-7 -9 -9 -19 -5 -23 4 -4 10 -1 12 6 7 18 53 15 53 -3 0
-9 -9 -15 -23 -15 -52 0 -75 -49 -35 -74 13 -8 23 -8 38 1 12 8 21 9 25 3 3
-6 14 -10 23 -10 12 0 13 3 4 12 -7 7 -12 30 -12 53 0 23 -5 46 -12 53 -17 17
-53 15 -68 -3z m55 -75 c-5 -15 -13 -20 -28 -18 -30 4 -28 31 3 38 31 8 33 7
25 -20z"/>
<path d="M3960 113 c0 -76 18 -85 22 -10 3 48 5 52 31 55 27 3 27 2 27 -52 0
-32 4 -56 10 -56 7 0 10 24 8 63 l-3 62 -47 1 -48 1 0 -64z"/>
<path d="M4177 162 c-36 -39 -10 -112 39 -112 21 0 44 18 44 34 0 6 -5 5 -12
-2 -17 -17 -55 -15 -62 4 -9 24 -9 24 39 24 37 0 45 3 45 18 0 24 -31 52 -57
52 -11 0 -27 -8 -36 -18z m67 -17 c4 -12 -3 -15 -29 -15 -26 0 -33 3 -29 15 4
8 16 15 29 15 13 0 25 -7 29 -15z"/>
<path d="M4517 162 c-36 -39 -10 -112 39 -112 21 0 44 18 44 34 0 6 -5 5 -12
-2 -17 -17 -55 -15 -62 4 -9 24 -9 24 39 24 37 0 45 3 45 18 0 24 -31 52 -57
52 -11 0 -27 -8 -36 -18z m67 -17 c4 -12 -3 -15 -29 -15 -26 0 -33 3 -29 15 4
8 16 15 29 15 13 0 25 -7 29 -15z"/>
<path d="M4947 162 c-36 -39 -10 -112 39 -112 21 0 44 18 44 34 0 6 -5 5 -12
-2 -17 -17 -55 -15 -62 4 -9 24 -9 24 39 24 37 0 45 3 45 18 0 24 -31 52 -57
52 -11 0 -27 -8 -36 -18z m67 -17 c4 -12 -3 -15 -29 -15 -26 0 -33 3 -29 15 4
8 16 15 29 15 13 0 25 -7 29 -15z"/>
<path d="M5200 115 c0 -51 3 -65 15 -65 12 0 15 14 15 65 0 51 -3 65 -15 65
-12 0 -15 -14 -15 -65z"/>
<path d="M5320 115 c0 -51 3 -65 15 -65 12 0 15 14 15 65 0 51 -3 65 -15 65
-12 0 -15 -14 -15 -65z"/>
<path d="M5447 162 c-36 -40 -10 -112 40 -112 46 0 72 80 37 114 -21 21 -57
20 -77 -2z m69 -26 c9 -38 -4 -66 -31 -66 -27 0 -40 28 -31 66 5 17 13 24 31
24 18 0 26 -7 31 -24z"/>
</g>
</svg>
